<svg width="601" height="401" viewBox="0 0 601 401" fill="none" xmlns="http://www.w3.org/2000/svg">
<rect width="600" height="400" transform="translate(0.550781 0.5)" fill="white"/>
<path d="M214.981 258.969C198.751 268.809 180.116 273.969 161.136 273.879C142.156 273.789 123.571 268.452 107.435 258.459C91.2989 248.465 78.2408 234.204 69.7044 217.251C61.1679 200.299 57.4856 181.317 59.0645 162.402C60.6435 143.488 67.4221 125.379 78.6511 110.077C89.8801 94.7746 105.122 82.8757 122.692 75.6956C140.261 68.5155 159.474 66.3339 178.206 69.392C196.938 72.45 214.46 80.6286 228.834 93.0236L161.624 170.964L214.981 258.969Z" fill="#3646EF"/>
<path d="M250.309 94.077C262.422 104.896 271.802 118.429 277.683 133.568C283.564 148.708 285.778 165.024 284.145 181.183C282.511 197.342 277.077 212.885 268.285 226.541C259.494 240.197 247.595 251.579 233.562 259.755L181.75 170.833L250.309 94.077Z" fill="#DCE8FF"/>
<path d="M552.83 123.65L552.83 68.5546L338.353 68.5546L338.353 123.65L552.83 123.65Z" fill="#3646EF"/>
<path d="M390.664 89.8597V94.2351H395.811V96.2297H390.664V100.798H396.455V102.793H388.219V87.8651H396.455V89.8597H390.664ZM413.772 90.782C414.701 90.782 415.531 90.975 416.26 91.3611C417.004 91.7471 417.583 92.3191 417.997 93.0769C418.426 93.8347 418.641 94.7498 418.641 95.8222V102.793H416.217V96.1868C416.217 95.1287 415.953 94.3209 415.424 93.7632C414.894 93.1913 414.172 92.9053 413.257 92.9053C412.342 92.9053 411.613 93.1913 411.07 93.7632C410.541 94.3209 410.276 95.1287 410.276 96.1868V102.793H407.852V96.1868C407.852 95.1287 407.588 94.3209 407.059 93.7632C406.53 93.1913 405.808 92.9053 404.893 92.9053C403.978 92.9053 403.248 93.1913 402.705 93.7632C402.176 94.3209 401.911 95.1287 401.911 96.1868V102.793H399.466V90.975H401.911V92.3262C402.312 91.8401 402.819 91.4612 403.434 91.1895C404.049 90.9178 404.707 90.782 405.407 90.782C406.351 90.782 407.195 90.9822 407.938 91.3825C408.682 91.7829 409.254 92.362 409.654 93.1198C410.012 92.4049 410.569 91.8401 411.327 91.4254C412.085 90.9965 412.9 90.782 413.772 90.782ZM424.197 92.7123C424.612 92.169 425.176 91.7114 425.891 91.3396C426.606 90.9679 427.414 90.782 428.315 90.782C429.344 90.782 430.281 91.0394 431.125 91.5541C431.983 92.0546 432.655 92.7623 433.141 93.6774C433.627 94.5925 433.87 95.6435 433.87 96.8303C433.87 98.017 433.627 99.0823 433.141 100.026C432.655 100.955 431.983 101.685 431.125 102.214C430.281 102.728 429.344 102.986 428.315 102.986C427.414 102.986 426.613 102.807 425.913 102.45C425.212 102.078 424.64 101.62 424.197 101.077V108.412H421.752V90.975H424.197V92.7123ZM431.382 96.8303C431.382 96.0152 431.21 95.3146 430.867 94.7284C430.538 94.1278 430.095 93.6774 429.537 93.3772C428.994 93.0626 428.408 92.9053 427.779 92.9053C427.164 92.9053 426.578 93.0626 426.02 93.3772C425.477 93.6917 425.033 94.1493 424.69 94.7498C424.361 95.3504 424.197 96.0581 424.197 96.8732C424.197 97.6882 424.361 98.4031 424.69 99.0179C425.033 99.6185 425.477 100.076 426.02 100.391C426.578 100.705 427.164 100.862 427.779 100.862C428.408 100.862 428.994 100.705 429.537 100.391C430.095 100.062 430.538 99.5899 430.867 98.975C431.21 98.3602 431.382 97.6453 431.382 96.8303ZM438.733 86.9214V102.793H436.288V86.9214H438.733ZM447.069 102.986C445.954 102.986 444.946 102.736 444.045 102.235C443.144 101.72 442.436 101.005 441.922 100.09C441.407 99.1609 441.149 98.0885 441.149 96.8732C441.149 95.6721 441.414 94.6068 441.943 93.6774C442.472 92.748 443.194 92.0331 444.109 91.5327C445.024 91.0322 446.047 90.782 447.176 90.782C448.306 90.782 449.328 91.0322 450.243 91.5327C451.158 92.0331 451.88 92.748 452.409 93.6774C452.938 94.6068 453.203 95.6721 453.203 96.8732C453.203 98.0742 452.931 99.1395 452.388 100.069C451.845 100.998 451.101 101.72 450.157 102.235C449.228 102.736 448.199 102.986 447.069 102.986ZM447.069 100.862C447.698 100.862 448.284 100.712 448.828 100.412C449.385 100.112 449.836 99.6614 450.179 99.0608C450.522 98.4603 450.694 97.7311 450.694 96.8732C450.694 96.0152 450.529 95.2932 450.2 94.7069C449.871 94.1064 449.435 93.656 448.892 93.3557C448.349 93.0555 447.762 92.9053 447.133 92.9053C446.504 92.9053 445.918 93.0555 445.375 93.3557C444.846 93.656 444.424 94.1064 444.109 94.7069C443.795 95.2932 443.637 96.0152 443.637 96.8732C443.637 98.1457 443.959 99.1323 444.602 99.8329C445.26 100.519 446.082 100.862 447.069 100.862ZM466.258 90.975L459.009 108.348H456.478L458.88 102.6L454.226 90.975H456.95L460.274 99.9831L463.727 90.975H466.258ZM478.934 96.5943C478.934 97.0376 478.906 97.4379 478.849 97.7954H469.819C469.891 98.7391 470.241 99.4969 470.87 100.069C471.499 100.641 472.271 100.927 473.186 100.927C474.502 100.927 475.431 100.376 475.975 99.2753H478.613C478.255 100.362 477.605 101.256 476.661 101.956C475.732 102.643 474.573 102.986 473.186 102.986C472.057 102.986 471.042 102.736 470.141 102.235C469.254 101.72 468.554 101.005 468.039 100.09C467.539 99.1609 467.288 98.0885 467.288 96.8732C467.288 95.6578 467.531 94.5925 468.018 93.6774C468.518 92.748 469.211 92.0331 470.098 91.5327C470.999 91.0322 472.028 90.782 473.186 90.782C474.302 90.782 475.295 91.0251 476.168 91.5112C477.04 91.9974 477.719 92.6837 478.205 93.5702C478.691 94.4424 478.934 95.4505 478.934 96.5943ZM476.382 95.8222C476.368 94.9214 476.046 94.1993 475.417 93.656C474.788 93.1127 474.009 92.841 473.079 92.841C472.236 92.841 471.514 93.1127 470.913 93.656C470.312 94.185 469.955 94.9071 469.841 95.8222H476.382ZM492.172 96.5943C492.172 97.0376 492.143 97.4379 492.086 97.7954H483.056C483.128 98.7391 483.478 99.4969 484.107 100.069C484.736 100.641 485.509 100.927 486.424 100.927C487.739 100.927 488.669 100.376 489.212 99.2753H491.85C491.493 100.362 490.842 101.256 489.898 101.956C488.969 102.643 487.811 102.986 486.424 102.986C485.294 102.986 484.279 102.736 483.378 102.235C482.492 101.72 481.791 101.005 481.276 100.09C480.776 99.1609 480.526 98.0885 480.526 96.8732C480.526 95.6578 480.769 94.5925 481.255 93.6774C481.755 92.748 482.449 92.0331 483.335 91.5327C484.236 91.0322 485.266 90.782 486.424 90.782C487.539 90.782 488.533 91.0251 489.405 91.5112C490.277 91.9974 490.956 92.6837 491.442 93.5702C491.929 94.4424 492.172 95.4505 492.172 96.5943ZM489.619 95.8222C489.605 94.9214 489.283 94.1993 488.654 93.656C488.025 93.1127 487.246 92.841 486.316 92.841C485.473 92.841 484.751 93.1127 484.15 93.656C483.55 94.185 483.192 94.9071 483.078 95.8222H489.619ZM498.867 102.986C497.938 102.986 497.102 102.821 496.358 102.492C495.629 102.149 495.05 101.692 494.621 101.12C494.192 100.534 493.963 99.883 493.934 99.1681H496.465C496.508 99.6685 496.744 100.09 497.173 100.433C497.616 100.762 498.167 100.927 498.824 100.927C499.511 100.927 500.04 100.798 500.412 100.541C500.798 100.269 500.991 99.9259 500.991 99.5112C500.991 99.068 500.776 98.7391 500.347 98.5246C499.933 98.3102 499.268 98.0742 498.353 97.8169C497.466 97.5738 496.744 97.3379 496.186 97.1091C495.629 96.8803 495.143 96.53 494.728 96.0581C494.328 95.5863 494.127 94.9643 494.127 94.1922C494.127 93.5631 494.313 92.9911 494.685 92.4764C495.057 91.9473 495.586 91.5327 496.272 91.2324C496.973 90.9321 497.774 90.782 498.674 90.782C500.018 90.782 501.098 91.1252 501.913 91.8115C502.742 92.4835 503.186 93.4058 503.243 94.5782H500.798C500.755 94.0492 500.54 93.6274 500.154 93.3128C499.768 92.9983 499.246 92.841 498.589 92.841C497.945 92.841 497.452 92.9625 497.109 93.2056C496.766 93.4487 496.594 93.7704 496.594 94.1707C496.594 94.4853 496.708 94.7498 496.937 94.9643C497.166 95.1788 497.445 95.3504 497.774 95.4791C498.102 95.5934 498.589 95.7436 499.232 95.9295C500.09 96.1582 500.791 96.3942 501.334 96.6372C501.892 96.866 502.371 97.2092 502.771 97.6667C503.171 98.1243 503.379 98.732 503.393 99.4898C503.393 100.162 503.207 100.762 502.835 101.291C502.463 101.82 501.934 102.235 501.248 102.535C500.576 102.836 499.782 102.986 498.867 102.986Z" fill="white"/>
<path d="M552.83 198.423L552.83 143.328L338.353 143.328L338.353 198.423L552.83 198.423Z" fill="#DCE8FF"/>
<path d="M422.642 162.958L418.224 177.864H415.457L412.325 166.583L409.001 177.864L406.256 177.885L402.031 162.958H404.626L407.714 175.097L411.06 162.958H413.805L416.915 175.033L420.025 162.958H422.642ZM429.784 178.057C428.669 178.057 427.661 177.807 426.76 177.306C425.859 176.792 425.152 176.077 424.637 175.162C424.122 174.232 423.865 173.16 423.865 171.944C423.865 170.743 424.129 169.678 424.658 168.749C425.187 167.819 425.91 167.104 426.825 166.604C427.74 166.104 428.762 165.853 429.892 165.853C431.021 165.853 432.044 166.104 432.959 166.604C433.874 167.104 434.596 167.819 435.125 168.749C435.654 169.678 435.918 170.743 435.918 171.944C435.918 173.146 435.647 174.211 435.103 175.14C434.56 176.07 433.817 176.792 432.873 177.306C431.943 177.807 430.914 178.057 429.784 178.057ZM429.784 175.934C430.414 175.934 431 175.784 431.543 175.483C432.101 175.183 432.551 174.733 432.894 174.132C433.237 173.532 433.409 172.802 433.409 171.944C433.409 171.087 433.245 170.364 432.916 169.778C432.587 169.178 432.151 168.727 431.607 168.427C431.064 168.127 430.478 167.977 429.849 167.977C429.22 167.977 428.633 168.127 428.09 168.427C427.561 168.727 427.139 169.178 426.825 169.778C426.51 170.364 426.353 171.087 426.353 171.944C426.353 173.217 426.674 174.204 427.318 174.904C427.976 175.591 428.798 175.934 429.784 175.934ZM440.781 167.762C441.138 167.162 441.61 166.697 442.196 166.368C442.797 166.025 443.504 165.853 444.319 165.853V168.384H443.697C442.739 168.384 442.01 168.627 441.51 169.113C441.024 169.599 440.781 170.443 440.781 171.644V177.864H438.336V166.046H440.781V167.762ZM451.243 171.966L456.69 177.864H453.387L449.012 172.781V177.864H446.567V161.993H449.012V171.215L453.302 166.046H456.69L451.243 171.966ZM469.274 171.666C469.274 172.109 469.245 172.509 469.188 172.867H460.159C460.23 173.81 460.58 174.568 461.21 175.14C461.839 175.712 462.611 175.998 463.526 175.998C464.841 175.998 465.771 175.448 466.314 174.347H468.952C468.595 175.433 467.944 176.327 467 177.028C466.071 177.714 464.913 178.057 463.526 178.057C462.396 178.057 461.381 177.807 460.48 177.306C459.594 176.792 458.893 176.077 458.378 175.162C457.878 174.232 457.628 173.16 457.628 171.944C457.628 170.729 457.871 169.664 458.357 168.749C458.857 167.819 459.551 167.104 460.437 166.604C461.338 166.104 462.368 165.853 463.526 165.853C464.641 165.853 465.635 166.096 466.507 166.583C467.379 167.069 468.058 167.755 468.545 168.641C469.031 169.514 469.274 170.522 469.274 171.666ZM466.722 170.894C466.707 169.993 466.386 169.271 465.756 168.727C465.127 168.184 464.348 167.912 463.419 167.912C462.575 167.912 461.853 168.184 461.252 168.727C460.652 169.256 460.294 169.978 460.18 170.894H466.722ZM474.125 167.762C474.483 167.162 474.954 166.697 475.541 166.368C476.141 166.025 476.849 165.853 477.664 165.853V168.384H477.042C476.084 168.384 475.355 168.627 474.854 169.113C474.368 169.599 474.125 170.443 474.125 171.644V177.864H471.68V166.046H474.125V167.762ZM484.201 178.057C483.272 178.057 482.435 177.893 481.692 177.564C480.962 177.221 480.383 176.763 479.954 176.191C479.525 175.605 479.297 174.954 479.268 174.239H481.799C481.842 174.74 482.078 175.162 482.507 175.505C482.95 175.834 483.5 175.998 484.158 175.998C484.844 175.998 485.373 175.869 485.745 175.612C486.131 175.34 486.324 174.997 486.324 174.583C486.324 174.139 486.11 173.81 485.681 173.596C485.266 173.381 484.601 173.146 483.686 172.888C482.8 172.645 482.078 172.409 481.52 172.18C480.962 171.952 480.476 171.601 480.062 171.129C479.661 170.658 479.461 170.036 479.461 169.263C479.461 168.634 479.647 168.062 480.019 167.548C480.39 167.019 480.919 166.604 481.606 166.304C482.306 166.003 483.107 165.853 484.008 165.853C485.352 165.853 486.432 166.196 487.247 166.883C488.076 167.555 488.519 168.477 488.576 169.65H486.131C486.088 169.12 485.874 168.699 485.488 168.384C485.102 168.07 484.58 167.912 483.922 167.912C483.279 167.912 482.785 168.034 482.442 168.277C482.099 168.52 481.928 168.842 481.928 169.242C481.928 169.557 482.042 169.821 482.271 170.036C482.499 170.25 482.778 170.422 483.107 170.55C483.436 170.665 483.922 170.815 484.566 171.001C485.423 171.23 486.124 171.465 486.667 171.709C487.225 171.937 487.704 172.28 488.104 172.738C488.505 173.196 488.712 173.803 488.726 174.561C488.726 175.233 488.541 175.834 488.169 176.363C487.797 176.892 487.268 177.306 486.582 177.607C485.91 177.907 485.116 178.057 484.201 178.057Z" fill="black" fill-opacity="0.5"/>
<path d="M552.83 273.197L552.83 218.102L338.353 218.102L338.353 273.197L552.83 273.197Z" fill="#DCE8FF"/>
<path d="M411.039 239.998V244.373H416.186V246.368H411.039V250.936H416.83V252.931H408.594V238.003H416.83V239.998H411.039ZM424.903 246.947L428.721 252.931H425.954L423.402 248.92L421 252.931H418.447L422.265 247.119L418.447 241.113H421.214L423.766 245.124L426.168 241.113H428.721L424.903 246.947ZM432.989 242.85C433.404 242.307 433.969 241.85 434.684 241.478C435.399 241.106 436.207 240.92 437.107 240.92C438.137 240.92 439.073 241.178 439.917 241.692C440.775 242.193 441.447 242.901 441.933 243.816C442.419 244.731 442.662 245.782 442.662 246.968C442.662 248.155 442.419 249.22 441.933 250.164C441.447 251.094 440.775 251.823 439.917 252.352C439.073 252.867 438.137 253.124 437.107 253.124C436.207 253.124 435.406 252.945 434.705 252.588C434.005 252.216 433.433 251.758 432.989 251.215V258.55H430.544V241.113H432.989V242.85ZM440.174 246.968C440.174 246.153 440.003 245.453 439.66 244.867C439.331 244.266 438.887 243.816 438.33 243.515C437.787 243.201 437.2 243.044 436.571 243.044C435.956 243.044 435.37 243.201 434.812 243.515C434.269 243.83 433.826 244.287 433.483 244.888C433.154 245.489 432.989 246.196 432.989 247.011C432.989 247.826 433.154 248.541 433.483 249.156C433.826 249.757 434.269 250.214 434.812 250.529C435.37 250.843 435.956 251.001 436.571 251.001C437.2 251.001 437.787 250.843 438.33 250.529C438.887 250.2 439.331 249.728 439.66 249.113C440.003 248.498 440.174 247.783 440.174 246.968ZM455.911 246.733C455.911 247.176 455.883 247.576 455.825 247.934H446.796C446.868 248.877 447.218 249.635 447.847 250.207C448.476 250.779 449.248 251.065 450.163 251.065C451.479 251.065 452.408 250.514 452.952 249.413H455.59C455.232 250.5 454.582 251.394 453.638 252.094C452.708 252.781 451.55 253.124 450.163 253.124C449.034 253.124 448.019 252.874 447.118 252.373C446.231 251.859 445.531 251.144 445.016 250.228C444.515 249.299 444.265 248.227 444.265 247.011C444.265 245.796 444.508 244.731 444.994 243.816C445.495 242.886 446.188 242.171 447.075 241.671C447.976 241.17 449.005 240.92 450.163 240.92C451.279 240.92 452.272 241.163 453.145 241.649C454.017 242.136 454.696 242.822 455.182 243.708C455.668 244.581 455.911 245.589 455.911 246.733ZM453.359 245.96C453.345 245.06 453.023 244.338 452.394 243.794C451.765 243.251 450.985 242.979 450.056 242.979C449.212 242.979 448.49 243.251 447.89 243.794C447.289 244.323 446.932 245.045 446.817 245.96H453.359ZM460.762 242.829C461.12 242.228 461.592 241.764 462.178 241.435C462.779 241.092 463.486 240.92 464.301 240.92V243.451H463.679C462.721 243.451 461.992 243.694 461.492 244.18C461.006 244.666 460.762 245.51 460.762 246.711V252.931H458.317V241.113H460.762V242.829ZM469.401 243.108V249.649C469.401 250.093 469.501 250.414 469.702 250.615C469.916 250.8 470.274 250.893 470.774 250.893H472.275V252.931H470.345C469.244 252.931 468.401 252.674 467.814 252.159C467.228 251.644 466.935 250.808 466.935 249.649V243.108H465.541V241.113H466.935V238.175H469.401V241.113H472.275V243.108H469.401ZM478.818 253.124C477.889 253.124 477.053 252.96 476.309 252.631C475.58 252.287 475.001 251.83 474.572 251.258C474.143 250.672 473.914 250.021 473.885 249.306H476.416C476.459 249.807 476.695 250.228 477.124 250.572C477.567 250.901 478.118 251.065 478.776 251.065C479.462 251.065 479.991 250.936 480.363 250.679C480.749 250.407 480.942 250.064 480.942 249.649C480.942 249.206 480.727 248.877 480.298 248.663C479.884 248.448 479.219 248.212 478.304 247.955C477.417 247.712 476.695 247.476 476.137 247.247C475.58 247.018 475.094 246.668 474.679 246.196C474.279 245.724 474.079 245.102 474.079 244.33C474.079 243.701 474.264 243.129 474.636 242.615C475.008 242.086 475.537 241.671 476.223 241.371C476.924 241.07 477.725 240.92 478.625 240.92C479.969 240.92 481.049 241.263 481.864 241.95C482.693 242.622 483.137 243.544 483.194 244.716H480.749C480.706 244.187 480.491 243.766 480.105 243.451C479.719 243.136 479.197 242.979 478.54 242.979C477.896 242.979 477.403 243.101 477.06 243.344C476.717 243.587 476.545 243.909 476.545 244.309C476.545 244.623 476.659 244.888 476.888 245.102C477.117 245.317 477.396 245.489 477.725 245.617C478.053 245.732 478.54 245.882 479.183 246.068C480.041 246.296 480.742 246.532 481.285 246.775C481.843 247.004 482.322 247.347 482.722 247.805C483.122 248.262 483.33 248.87 483.344 249.628C483.344 250.3 483.158 250.901 482.786 251.43C482.415 251.959 481.885 252.373 481.199 252.674C480.527 252.974 479.734 253.124 478.818 253.124Z" fill="black" fill-opacity="0.5"/>
<path d="M62.8274 343.712C63.6281 343.855 64.3073 344.277 64.8649 344.977C65.4225 345.678 65.7014 346.472 65.7014 347.358C65.7014 348.116 65.5012 348.802 65.1008 349.417C64.7148 350.018 64.15 350.497 63.4065 350.854C62.6629 351.197 61.7979 351.369 60.8113 351.369H54.8488V336.463H60.5325C61.5477 336.463 62.4199 336.634 63.1491 336.977C63.8783 337.321 64.4288 337.785 64.8006 338.372C65.1723 338.944 65.3582 339.587 65.3582 340.302C65.3582 341.16 65.1294 341.875 64.6719 342.447C64.2143 343.019 63.5995 343.44 62.8274 343.712ZM57.2939 342.725H60.318C61.1187 342.725 61.7407 342.547 62.1839 342.189C62.6415 341.818 62.8703 341.288 62.8703 340.602C62.8703 339.93 62.6415 339.408 62.1839 339.036C61.7407 338.65 61.1187 338.457 60.318 338.457H57.2939V342.725ZM60.5968 349.374C61.4261 349.374 62.0767 349.174 62.5485 348.774C63.0204 348.373 63.2563 347.816 63.2563 347.101C63.2563 346.372 63.0061 345.792 62.5057 345.364C62.0052 344.935 61.3403 344.72 60.511 344.72H57.2939V349.374H60.5968ZM70.8034 335.498V351.369H68.3584V335.498H70.8034ZM84.7159 339.551V351.369H82.2709V349.975C81.8848 350.461 81.3772 350.847 80.7481 351.133C80.1333 351.405 79.4755 351.54 78.7749 351.54C77.8455 351.54 77.0091 351.347 76.2655 350.961C75.5363 350.575 74.9572 350.003 74.5283 349.246C74.1136 348.488 73.9063 347.573 73.9063 346.5V339.551H76.3299V346.136C76.3299 347.194 76.5944 348.009 77.1234 348.581C77.6525 349.138 78.3746 349.417 79.2897 349.417C80.2048 349.417 80.9268 349.138 81.4559 348.581C81.9992 348.009 82.2709 347.194 82.2709 346.136V339.551H84.7159ZM98.7731 345.171C98.7731 345.614 98.7445 346.014 98.6873 346.372H89.6578C89.7293 347.315 90.0796 348.073 90.7087 348.645C91.3379 349.217 92.11 349.503 93.0251 349.503C94.3405 349.503 95.2699 348.952 95.8133 347.851H98.4514C98.0939 348.938 97.4433 349.832 96.4996 350.532C95.5702 351.219 94.412 351.562 93.0251 351.562C91.8955 351.562 90.8803 351.312 89.9795 350.811C89.093 350.297 88.3924 349.582 87.8776 348.666C87.3772 347.737 87.127 346.665 87.127 345.449C87.127 344.234 87.37 343.169 87.8562 342.254C88.3566 341.324 89.0501 340.609 89.9366 340.109C90.8374 339.608 91.8669 339.358 93.0251 339.358C94.1404 339.358 95.1341 339.601 96.0063 340.087C96.8785 340.574 97.5577 341.26 98.0439 342.146C98.53 343.019 98.7731 344.027 98.7731 345.171ZM96.2208 344.398C96.2065 343.498 95.8848 342.776 95.2556 342.232C94.6265 341.689 93.8472 341.417 92.9178 341.417C92.0742 341.417 91.3522 341.689 90.7516 342.232C90.1511 342.761 89.7936 343.483 89.6792 344.398H96.2208ZM103.624 341.267C103.982 340.666 104.454 340.202 105.04 339.873C105.64 339.53 106.348 339.358 107.163 339.358V341.889H106.541C105.583 341.889 104.854 342.132 104.354 342.618C103.867 343.104 103.624 343.948 103.624 345.149V351.369H101.179V339.551H103.624V341.267ZM117.427 335.498V351.369H114.982V335.498H117.427ZM121.881 337.986C121.438 337.986 121.066 337.835 120.766 337.535C120.466 337.235 120.315 336.863 120.315 336.42C120.315 335.977 120.466 335.605 120.766 335.305C121.066 335.004 121.438 334.854 121.881 334.854C122.31 334.854 122.675 335.004 122.975 335.305C123.275 335.605 123.425 335.977 123.425 336.42C123.425 336.863 123.275 337.235 122.975 337.535C122.675 337.835 122.31 337.986 121.881 337.986ZM123.082 339.551V351.369H120.637V339.551H123.082ZM131.054 339.358C131.969 339.358 132.777 339.544 133.477 339.916C134.192 340.273 134.75 340.724 135.15 341.267V339.551H137.617V351.562C137.617 352.649 137.388 353.614 136.93 354.457C136.473 355.315 135.808 355.987 134.936 356.473C134.078 356.96 133.048 357.203 131.847 357.203C130.246 357.203 128.916 356.824 127.858 356.066C126.8 355.322 126.199 354.307 126.056 353.02H128.48C128.666 353.635 129.059 354.129 129.66 354.5C130.274 354.886 131.004 355.079 131.847 355.079C132.834 355.079 133.627 354.779 134.228 354.179C134.843 353.578 135.15 352.706 135.15 351.562V349.589C134.736 350.146 134.171 350.618 133.456 351.004C132.755 351.376 131.955 351.562 131.054 351.562C130.024 351.562 129.081 351.305 128.223 350.79C127.379 350.261 126.707 349.532 126.207 348.602C125.72 347.658 125.477 346.593 125.477 345.406C125.477 344.22 125.72 343.169 126.207 342.254C126.707 341.339 127.379 340.631 128.223 340.13C129.081 339.616 130.024 339.358 131.054 339.358ZM135.15 345.449C135.15 344.634 134.979 343.927 134.636 343.326C134.307 342.725 133.871 342.268 133.327 341.953C132.784 341.639 132.198 341.481 131.568 341.481C130.939 341.481 130.353 341.639 129.81 341.953C129.266 342.254 128.823 342.704 128.48 343.305C128.151 343.891 127.987 344.591 127.987 345.406C127.987 346.221 128.151 346.936 128.48 347.551C128.823 348.166 129.266 348.638 129.81 348.967C130.367 349.281 130.954 349.439 131.568 349.439C132.198 349.439 132.784 349.281 133.327 348.967C133.871 348.652 134.307 348.195 134.636 347.594C134.979 346.979 135.15 346.264 135.15 345.449ZM146.941 339.358C147.842 339.358 148.642 339.551 149.343 339.937C150.058 340.323 150.616 340.895 151.016 341.653C151.431 342.411 151.638 343.326 151.638 344.398V351.369H149.214V344.763C149.214 343.705 148.95 342.897 148.421 342.339C147.892 341.767 147.17 341.481 146.254 341.481C145.339 341.481 144.61 341.767 144.067 342.339C143.538 342.897 143.273 343.705 143.273 344.763V351.369H140.828V335.498H143.273V340.924C143.688 340.423 144.21 340.037 144.839 339.766C145.482 339.494 146.183 339.358 146.941 339.358ZM157.609 341.546V348.087C157.609 348.531 157.709 348.852 157.909 349.053C158.124 349.238 158.481 349.331 158.982 349.331H160.483V351.369H158.553C157.452 351.369 156.608 351.112 156.022 350.597C155.436 350.082 155.143 349.246 155.143 348.087V341.546H153.749V339.551H155.143V336.613H157.609V339.551H160.483V341.546H157.609ZM179.139 345.171C179.139 345.614 179.111 346.014 179.053 346.372H170.024C170.095 347.315 170.446 348.073 171.075 348.645C171.704 349.217 172.476 349.503 173.391 349.503C174.707 349.503 175.636 348.952 176.179 347.851H178.817C178.46 348.938 177.809 349.832 176.866 350.532C175.936 351.219 174.778 351.562 173.391 351.562C172.262 351.562 171.246 351.312 170.346 350.811C169.459 350.297 168.758 349.582 168.244 348.666C167.743 347.737 167.493 346.665 167.493 345.449C167.493 344.234 167.736 343.169 168.222 342.254C168.723 341.324 169.416 340.609 170.303 340.109C171.204 339.608 172.233 339.358 173.391 339.358C174.506 339.358 175.5 339.601 176.372 340.087C177.245 340.574 177.924 341.26 178.41 342.146C178.896 343.019 179.139 344.027 179.139 345.171ZM176.587 344.398C176.573 343.498 176.251 342.776 175.622 342.232C174.993 341.689 174.213 341.417 173.284 341.417C172.44 341.417 171.718 341.689 171.118 342.232C170.517 342.761 170.16 343.483 170.045 344.398H176.587ZM187.508 339.358C188.437 339.358 189.267 339.551 189.996 339.937C190.739 340.323 191.318 340.895 191.733 341.653C192.148 342.411 192.355 343.326 192.355 344.398V351.369H189.931V344.763C189.931 343.705 189.667 342.897 189.138 342.339C188.609 341.767 187.887 341.481 186.972 341.481C186.057 341.481 185.327 341.767 184.784 342.339C184.255 342.897 183.99 343.705 183.99 344.763V351.369H181.545V339.551H183.99V340.902C184.391 340.416 184.898 340.037 185.513 339.766C186.142 339.494 186.807 339.358 187.508 339.358ZM200.235 339.358C201.15 339.358 201.958 339.544 202.659 339.916C203.374 340.273 203.931 340.724 204.332 341.267V339.551H206.798V351.562C206.798 352.649 206.569 353.614 206.112 354.457C205.654 355.315 204.989 355.987 204.117 356.473C203.259 356.96 202.23 357.203 201.029 357.203C199.427 357.203 198.098 356.824 197.039 356.066C195.981 355.322 195.381 354.307 195.238 353.02H197.661C197.847 353.635 198.241 354.129 198.841 354.5C199.456 354.886 200.185 355.079 201.029 355.079C202.015 355.079 202.809 354.779 203.409 354.179C204.024 353.578 204.332 352.706 204.332 351.562V349.589C203.917 350.146 203.352 350.618 202.637 351.004C201.937 351.376 201.136 351.562 200.235 351.562C199.206 351.562 198.262 351.305 197.404 350.79C196.56 350.261 195.888 349.532 195.388 348.602C194.902 347.658 194.659 346.593 194.659 345.406C194.659 344.22 194.902 343.169 195.388 342.254C195.888 341.339 196.56 340.631 197.404 340.13C198.262 339.616 199.206 339.358 200.235 339.358ZM204.332 345.449C204.332 344.634 204.16 343.927 203.817 343.326C203.488 342.725 203.052 342.268 202.509 341.953C201.965 341.639 201.379 341.481 200.75 341.481C200.121 341.481 199.535 341.639 198.991 341.953C198.448 342.254 198.005 342.704 197.661 343.305C197.333 343.891 197.168 344.591 197.168 345.406C197.168 346.221 197.333 346.936 197.661 347.551C198.005 348.166 198.448 348.638 198.991 348.967C199.549 349.281 200.135 349.439 200.75 349.439C201.379 349.439 201.965 349.281 202.509 348.967C203.052 348.652 203.488 348.195 203.817 347.594C204.16 346.979 204.332 346.264 204.332 345.449ZM212.455 341.267C212.812 340.666 213.284 340.202 213.87 339.873C214.471 339.53 215.179 339.358 215.994 339.358V341.889H215.372C214.414 341.889 213.684 342.132 213.184 342.618C212.698 343.104 212.455 343.948 212.455 345.149V351.369H210.01V339.551H212.455V341.267ZM223.367 351.562C222.252 351.562 221.244 351.312 220.343 350.811C219.442 350.297 218.734 349.582 218.22 348.666C217.705 347.737 217.448 346.665 217.448 345.449C217.448 344.248 217.712 343.183 218.241 342.254C218.77 341.324 219.492 340.609 220.407 340.109C221.322 339.608 222.345 339.358 223.474 339.358C224.604 339.358 225.626 339.608 226.541 340.109C227.456 340.609 228.179 341.324 228.708 342.254C229.237 343.183 229.501 344.248 229.501 345.449C229.501 346.65 229.229 347.716 228.686 348.645C228.143 349.574 227.399 350.297 226.456 350.811C225.526 351.312 224.497 351.562 223.367 351.562ZM223.367 349.439C223.996 349.439 224.582 349.288 225.126 348.988C225.683 348.688 226.134 348.238 226.477 347.637C226.82 347.036 226.992 346.307 226.992 345.449C226.992 344.591 226.827 343.869 226.498 343.283C226.17 342.683 225.733 342.232 225.19 341.932C224.647 341.632 224.061 341.481 223.431 341.481C222.802 341.481 222.216 341.632 221.673 341.932C221.144 342.232 220.722 342.683 220.407 343.283C220.093 343.869 219.935 344.591 219.935 345.449C219.935 346.722 220.257 347.708 220.901 348.409C221.558 349.095 222.38 349.439 223.367 349.439ZM236.208 351.562C235.278 351.562 234.442 351.397 233.698 351.069C232.969 350.725 232.39 350.268 231.961 349.696C231.532 349.11 231.303 348.459 231.275 347.744H233.806C233.848 348.245 234.084 348.666 234.513 349.01C234.957 349.339 235.507 349.503 236.165 349.503C236.851 349.503 237.38 349.374 237.752 349.117C238.138 348.845 238.331 348.502 238.331 348.087C238.331 347.644 238.117 347.315 237.688 347.101C237.273 346.886 236.608 346.65 235.693 346.393C234.806 346.15 234.084 345.914 233.527 345.685C232.969 345.456 232.483 345.106 232.068 344.634C231.668 344.162 231.468 343.54 231.468 342.768C231.468 342.139 231.654 341.567 232.025 341.053C232.397 340.523 232.926 340.109 233.613 339.809C234.313 339.508 235.114 339.358 236.015 339.358C237.359 339.358 238.438 339.701 239.253 340.388C240.083 341.06 240.526 341.982 240.583 343.154H238.138C238.095 342.625 237.881 342.204 237.495 341.889C237.109 341.574 236.587 341.417 235.929 341.417C235.285 341.417 234.792 341.539 234.449 341.782C234.106 342.025 233.934 342.347 233.934 342.747C233.934 343.061 234.049 343.326 234.277 343.54C234.506 343.755 234.785 343.927 235.114 344.055C235.443 344.17 235.929 344.32 236.572 344.506C237.43 344.734 238.131 344.97 238.674 345.213C239.232 345.442 239.711 345.785 240.111 346.243C240.512 346.7 240.719 347.308 240.733 348.066C240.733 348.738 240.547 349.339 240.176 349.868C239.804 350.397 239.275 350.811 238.588 351.112C237.916 351.412 237.123 351.562 236.208 351.562ZM247.665 351.562C246.735 351.562 245.899 351.397 245.155 351.069C244.426 350.725 243.847 350.268 243.418 349.696C242.989 349.11 242.76 348.459 242.732 347.744H245.263C245.305 348.245 245.541 348.666 245.97 349.01C246.414 349.339 246.964 349.503 247.622 349.503C248.308 349.503 248.837 349.374 249.209 349.117C249.595 348.845 249.788 348.502 249.788 348.087C249.788 347.644 249.574 347.315 249.145 347.101C248.73 346.886 248.065 346.65 247.15 346.393C246.263 346.15 245.541 345.914 244.984 345.685C244.426 345.456 243.94 345.106 243.525 344.634C243.125 344.162 242.925 343.54 242.925 342.768C242.925 342.139 243.111 341.567 243.482 341.053C243.854 340.523 244.383 340.109 245.069 339.809C245.77 339.508 246.571 339.358 247.472 339.358C248.816 339.358 249.895 339.701 250.71 340.388C251.54 341.06 251.983 341.982 252.04 343.154H249.595C249.552 342.625 249.338 342.204 248.952 341.889C248.565 341.574 248.044 341.417 247.386 341.417C246.742 341.417 246.249 341.539 245.906 341.782C245.563 342.025 245.391 342.347 245.391 342.747C245.391 343.061 245.506 343.326 245.734 343.54C245.963 343.755 246.242 343.927 246.571 344.055C246.9 344.17 247.386 344.32 248.029 344.506C248.887 344.734 249.588 344.97 250.131 345.213C250.689 345.442 251.168 345.785 251.568 346.243C251.969 346.7 252.176 347.308 252.19 348.066C252.19 348.738 252.004 349.339 251.632 349.868C251.261 350.397 250.732 350.811 250.045 351.112C249.373 351.412 248.58 351.562 247.665 351.562ZM265.663 345.171C265.663 345.614 265.635 346.014 265.577 346.372H256.548C256.619 347.315 256.97 348.073 257.599 348.645C258.228 349.217 259 349.503 259.915 349.503C261.231 349.503 262.16 348.952 262.703 347.851H265.341C264.984 348.938 264.333 349.832 263.39 350.532C262.46 351.219 261.302 351.562 259.915 351.562C258.786 351.562 257.77 351.312 256.87 350.811C255.983 350.297 255.282 349.582 254.768 348.666C254.267 347.737 254.017 346.665 254.017 345.449C254.017 344.234 254.26 343.169 254.746 342.254C255.247 341.324 255.94 340.609 256.827 340.109C257.728 339.608 258.757 339.358 259.915 339.358C261.03 339.358 262.024 339.601 262.896 340.087C263.769 340.574 264.448 341.26 264.934 342.146C265.42 343.019 265.663 344.027 265.663 345.171ZM263.111 344.398C263.097 343.498 262.775 342.776 262.146 342.232C261.517 341.689 260.737 341.417 259.808 341.417C258.964 341.417 258.242 341.689 257.642 342.232C257.041 342.761 256.684 343.483 256.569 344.398H263.111ZM267.254 345.406C267.254 344.22 267.497 343.169 267.984 342.254C268.484 341.339 269.156 340.631 270 340.13C270.858 339.616 271.808 339.358 272.852 339.358C273.624 339.358 274.382 339.53 275.126 339.873C275.883 340.202 276.484 340.645 276.927 341.203V335.498H279.394V351.369H276.927V349.589C276.527 350.161 275.969 350.633 275.254 351.004C274.554 351.376 273.746 351.562 272.831 351.562C271.801 351.562 270.858 351.305 270 350.79C269.156 350.261 268.484 349.532 267.984 348.602C267.497 347.658 267.254 346.593 267.254 345.406ZM276.927 345.449C276.927 344.634 276.756 343.927 276.412 343.326C276.084 342.725 275.648 342.268 275.104 341.953C274.561 341.639 273.975 341.481 273.345 341.481C272.716 341.481 272.13 341.639 271.587 341.953C271.043 342.254 270.6 342.704 270.257 343.305C269.928 343.891 269.764 344.591 269.764 345.406C269.764 346.221 269.928 346.936 270.257 347.551C270.6 348.166 271.043 348.638 271.587 348.967C272.144 349.281 272.731 349.439 273.345 349.439C273.975 349.439 274.561 349.281 275.104 348.967C275.648 348.652 276.084 348.195 276.412 347.594C276.756 346.979 276.927 346.264 276.927 345.449ZM287.362 345.406C287.362 344.22 287.605 343.169 288.091 342.254C288.591 341.339 289.263 340.631 290.107 340.13C290.965 339.616 291.916 339.358 292.959 339.358C293.732 339.358 294.489 339.53 295.233 339.873C295.991 340.202 296.591 340.645 297.034 341.203V335.498H299.501V351.369H297.034V349.589C296.634 350.161 296.076 350.633 295.362 351.004C294.661 351.376 293.853 351.562 292.938 351.562C291.908 351.562 290.965 351.305 290.107 350.79C289.263 350.261 288.591 349.532 288.091 348.602C287.605 347.658 287.362 346.593 287.362 345.406ZM297.034 345.449C297.034 344.634 296.863 343.927 296.52 343.326C296.191 342.725 295.755 342.268 295.211 341.953C294.668 341.639 294.082 341.481 293.453 341.481C292.824 341.481 292.237 341.639 291.694 341.953C291.151 342.254 290.707 342.704 290.364 343.305C290.035 343.891 289.871 344.591 289.871 345.406C289.871 346.221 290.035 346.936 290.364 347.551C290.707 348.166 291.151 348.638 291.694 348.967C292.252 349.281 292.838 349.439 293.453 349.439C294.082 349.439 294.668 349.281 295.211 348.967C295.755 348.652 296.191 348.195 296.52 347.594C296.863 346.979 297.034 346.264 297.034 345.449ZM313.544 345.171C313.544 345.614 313.515 346.014 313.458 346.372H304.428C304.5 347.315 304.85 348.073 305.479 348.645C306.108 349.217 306.88 349.503 307.796 349.503C309.111 349.503 310.04 348.952 310.584 347.851H313.222C312.864 348.938 312.214 349.832 311.27 350.532C310.341 351.219 309.182 351.562 307.796 351.562C306.666 351.562 305.651 351.312 304.75 350.811C303.863 350.297 303.163 349.582 302.648 348.666C302.148 347.737 301.897 346.665 301.897 345.449C301.897 344.234 302.14 343.169 302.627 342.254C303.127 341.324 303.821 340.609 304.707 340.109C305.608 339.608 306.637 339.358 307.796 339.358C308.911 339.358 309.905 339.601 310.777 340.087C311.649 340.574 312.328 341.26 312.814 342.146C313.3 343.019 313.544 344.027 313.544 345.171ZM310.991 344.398C310.977 343.498 310.655 342.776 310.026 342.232C309.397 341.689 308.618 341.417 307.688 341.417C306.845 341.417 306.123 341.689 305.522 342.232C304.922 342.761 304.564 343.483 304.45 344.398H310.991ZM330.255 339.358C331.185 339.358 332.014 339.551 332.743 339.937C333.487 340.323 334.066 340.895 334.481 341.653C334.909 342.411 335.124 343.326 335.124 344.398V351.369H332.7V344.763C332.7 343.705 332.436 342.897 331.907 342.339C331.378 341.767 330.656 341.481 329.741 341.481C328.825 341.481 328.096 341.767 327.553 342.339C327.024 342.897 326.759 343.705 326.759 344.763V351.369H324.336V344.763C324.336 343.705 324.071 342.897 323.542 342.339C323.013 341.767 322.291 341.481 321.376 341.481C320.461 341.481 319.732 341.767 319.188 342.339C318.659 342.897 318.395 343.705 318.395 344.763V351.369H315.95V339.551H318.395V340.902C318.795 340.416 319.303 340.037 319.918 339.766C320.532 339.494 321.19 339.358 321.891 339.358C322.834 339.358 323.678 339.558 324.422 339.959C325.165 340.359 325.737 340.938 326.137 341.696C326.495 340.981 327.052 340.416 327.81 340.002C328.568 339.573 329.383 339.358 330.255 339.358ZM337.42 345.406C337.42 344.22 337.663 343.169 338.149 342.254C338.65 341.339 339.322 340.631 340.165 340.13C341.023 339.616 341.967 339.358 342.997 339.358C343.926 339.358 344.734 339.544 345.42 339.916C346.121 340.273 346.678 340.724 347.093 341.267V339.551H349.56V351.369H347.093V349.61C346.678 350.168 346.114 350.633 345.399 351.004C344.684 351.376 343.869 351.562 342.954 351.562C341.939 351.562 341.009 351.305 340.165 350.79C339.322 350.261 338.65 349.532 338.149 348.602C337.663 347.658 337.42 346.593 337.42 345.406ZM347.093 345.449C347.093 344.634 346.922 343.927 346.578 343.326C346.249 342.725 345.813 342.268 345.27 341.953C344.727 341.639 344.14 341.481 343.511 341.481C342.882 341.481 342.296 341.639 341.753 341.953C341.209 342.254 340.766 342.704 340.423 343.305C340.094 343.891 339.93 344.591 339.93 345.406C339.93 346.221 340.094 346.936 340.423 347.551C340.766 348.166 341.209 348.638 341.753 348.967C342.31 349.281 342.897 349.439 343.511 349.439C344.14 349.439 344.727 349.281 345.27 348.967C345.813 348.652 346.249 348.195 346.578 347.594C346.922 346.979 347.093 346.264 347.093 345.449ZM358.734 339.358C359.663 339.358 360.492 339.551 361.221 339.937C361.965 340.323 362.544 340.895 362.959 341.653C363.373 342.411 363.581 343.326 363.581 344.398V351.369H361.157V344.763C361.157 343.705 360.893 342.897 360.364 342.339C359.835 341.767 359.112 341.481 358.197 341.481C357.282 341.481 356.553 341.767 356.01 342.339C355.481 342.897 355.216 343.705 355.216 344.763V351.369H352.771V339.551H355.216V340.902C355.616 340.416 356.124 340.037 356.739 339.766C357.368 339.494 358.033 339.358 358.734 339.358ZM365.885 345.406C365.885 344.22 366.128 343.169 366.614 342.254C367.114 341.339 367.786 340.631 368.63 340.13C369.488 339.616 370.439 339.358 371.482 339.358C372.254 339.358 373.012 339.53 373.756 339.873C374.514 340.202 375.114 340.645 375.557 341.203V335.498H378.024V351.369H375.557V349.589C375.157 350.161 374.599 350.633 373.885 351.004C373.184 351.376 372.376 351.562 371.461 351.562C370.431 351.562 369.488 351.305 368.63 350.79C367.786 350.261 367.114 349.532 366.614 348.602C366.128 347.658 365.885 346.593 365.885 345.406ZM375.557 345.449C375.557 344.634 375.386 343.927 375.043 343.326C374.714 342.725 374.278 342.268 373.734 341.953C373.191 341.639 372.605 341.481 371.976 341.481C371.347 341.481 370.76 341.639 370.217 341.953C369.674 342.254 369.23 342.704 368.887 343.305C368.558 343.891 368.394 344.591 368.394 345.406C368.394 346.221 368.558 346.936 368.887 347.551C369.23 348.166 369.674 348.638 370.217 348.967C370.775 349.281 371.361 349.439 371.976 349.439C372.605 349.439 373.191 349.281 373.734 348.967C374.278 348.652 374.714 348.195 375.043 347.594C375.386 346.979 375.557 346.264 375.557 345.449ZM385.525 351.562C384.596 351.562 383.759 351.397 383.016 351.069C382.286 350.725 381.707 350.268 381.278 349.696C380.849 349.11 380.621 348.459 380.592 347.744H383.123C383.166 348.245 383.402 348.666 383.831 349.01C384.274 349.339 384.824 349.503 385.482 349.503C386.168 349.503 386.697 349.374 387.069 349.117C387.455 348.845 387.648 348.502 387.648 348.087C387.648 347.644 387.434 347.315 387.005 347.101C386.59 346.886 385.925 346.65 385.01 346.393C384.124 346.15 383.402 345.914 382.844 345.685C382.286 345.456 381.8 345.106 381.386 344.634C380.985 344.162 380.785 343.54 380.785 342.768C380.785 342.139 380.971 341.567 381.343 341.053C381.714 340.523 382.243 340.109 382.93 339.809C383.63 339.508 384.431 339.358 385.332 339.358C386.676 339.358 387.755 339.701 388.571 340.388C389.4 341.06 389.843 341.982 389.9 343.154H387.455C387.412 342.625 387.198 342.204 386.812 341.889C386.426 341.574 385.904 341.417 385.246 341.417C384.603 341.417 384.109 341.539 383.766 341.782C383.423 342.025 383.251 342.347 383.251 342.747C383.251 343.061 383.366 343.326 383.595 343.54C383.823 343.755 384.102 343.927 384.431 344.055C384.76 344.17 385.246 344.32 385.89 344.506C386.747 344.734 387.448 344.97 387.991 345.213C388.549 345.442 389.028 345.785 389.428 346.243C389.829 346.7 390.036 347.308 390.05 348.066C390.05 348.738 389.865 349.339 389.493 349.868C389.121 350.397 388.592 350.811 387.906 351.112C387.234 351.412 386.44 351.562 385.525 351.562ZM401.116 341.546V348.087C401.116 348.531 401.216 348.852 401.417 349.053C401.631 349.238 401.988 349.331 402.489 349.331H403.99V351.369H402.06C400.959 351.369 400.115 351.112 399.529 350.597C398.943 350.082 398.65 349.246 398.65 348.087V341.546H397.256V339.551H398.65V336.613H401.116V339.551H403.99V341.546H401.116ZM412.356 339.358C413.257 339.358 414.058 339.551 414.758 339.937C415.473 340.323 416.031 340.895 416.431 341.653C416.846 342.411 417.053 343.326 417.053 344.398V351.369H414.63V344.763C414.63 343.705 414.365 342.897 413.836 342.339C413.307 341.767 412.585 341.481 411.67 341.481C410.755 341.481 410.026 341.767 409.482 342.339C408.953 342.897 408.689 343.705 408.689 344.763V351.369H406.244V335.498H408.689V340.924C409.103 340.423 409.625 340.037 410.254 339.766C410.898 339.494 411.599 339.358 412.356 339.358ZM425.298 351.562C424.183 351.562 423.175 351.312 422.274 350.811C421.373 350.297 420.666 349.582 420.151 348.666C419.636 347.737 419.379 346.665 419.379 345.449C419.379 344.248 419.643 343.183 420.172 342.254C420.701 341.324 421.423 340.609 422.338 340.109C423.254 339.608 424.276 339.358 425.405 339.358C426.535 339.358 427.557 339.608 428.472 340.109C429.388 340.609 430.11 341.324 430.639 342.254C431.168 343.183 431.432 344.248 431.432 345.449C431.432 346.65 431.161 347.716 430.617 348.645C430.074 349.574 429.33 350.297 428.387 350.811C427.457 351.312 426.428 351.562 425.298 351.562ZM425.298 349.439C425.927 349.439 426.514 349.288 427.057 348.988C427.615 348.688 428.065 348.238 428.408 347.637C428.751 347.036 428.923 346.307 428.923 345.449C428.923 344.591 428.758 343.869 428.43 343.283C428.101 342.683 427.665 342.232 427.121 341.932C426.578 341.632 425.992 341.481 425.363 341.481C424.733 341.481 424.147 341.632 423.604 341.932C423.075 342.232 422.653 342.683 422.338 343.283C422.024 343.869 421.867 344.591 421.867 345.449C421.867 346.722 422.188 347.708 422.832 348.409C423.489 349.095 424.312 349.439 425.298 349.439ZM436.294 341.267C436.652 340.666 437.124 340.202 437.71 339.873C438.31 339.53 439.018 339.358 439.833 339.358V341.889H439.211C438.253 341.889 437.524 342.132 437.024 342.618C436.537 343.104 436.294 343.948 436.294 345.149V351.369H433.849V339.551H436.294V341.267ZM447.207 351.562C446.091 351.562 445.083 351.312 444.183 350.811C443.282 350.297 442.574 349.582 442.059 348.666C441.545 347.737 441.287 346.665 441.287 345.449C441.287 344.248 441.552 343.183 442.081 342.254C442.61 341.324 443.332 340.609 444.247 340.109C445.162 339.608 446.184 339.358 447.314 339.358C448.444 339.358 449.466 339.608 450.381 340.109C451.296 340.609 452.018 341.324 452.547 342.254C453.076 343.183 453.341 344.248 453.341 345.449C453.341 346.65 453.069 347.716 452.526 348.645C451.982 349.574 451.239 350.297 450.295 350.811C449.366 351.312 448.336 351.562 447.207 351.562ZM447.207 349.439C447.836 349.439 448.422 349.288 448.965 348.988C449.523 348.688 449.973 348.238 450.317 347.637C450.66 347.036 450.831 346.307 450.831 345.449C450.831 344.591 450.667 343.869 450.338 343.283C450.009 342.683 449.573 342.232 449.03 341.932C448.486 341.632 447.9 341.481 447.271 341.481C446.642 341.481 446.056 341.632 445.512 341.932C444.983 342.232 444.562 342.683 444.247 343.283C443.932 343.869 443.775 344.591 443.775 345.449C443.775 346.722 444.097 347.708 444.74 348.409C445.398 349.095 446.22 349.439 447.207 349.439ZM466.46 339.551V351.369H464.015V349.975C463.629 350.461 463.122 350.847 462.492 351.133C461.878 351.405 461.22 351.54 460.519 351.54C459.59 351.54 458.753 351.347 458.01 350.961C457.281 350.575 456.702 350.003 456.273 349.246C455.858 348.488 455.651 347.573 455.651 346.5V339.551H458.074V346.136C458.074 347.194 458.339 348.009 458.868 348.581C459.397 349.138 460.119 349.417 461.034 349.417C461.949 349.417 462.671 349.138 463.2 348.581C463.744 348.009 464.015 347.194 464.015 346.136V339.551H466.46ZM474.448 339.358C475.363 339.358 476.171 339.544 476.871 339.916C477.586 340.273 478.144 340.724 478.544 341.267V339.551H481.011V351.562C481.011 352.649 480.782 353.614 480.324 354.457C479.867 355.315 479.202 355.987 478.33 356.473C477.472 356.96 476.442 357.203 475.241 357.203C473.64 357.203 472.31 356.824 471.252 356.066C470.194 355.322 469.593 354.307 469.45 353.02H471.874C472.06 353.635 472.453 354.129 473.054 354.5C473.668 354.886 474.398 355.079 475.241 355.079C476.228 355.079 477.021 354.779 477.622 354.179C478.237 353.578 478.544 352.706 478.544 351.562V349.589C478.13 350.146 477.565 350.618 476.85 351.004C476.149 351.376 475.348 351.562 474.448 351.562C473.418 351.562 472.474 351.305 471.617 350.79C470.773 350.261 470.101 349.532 469.6 348.602C469.114 347.658 468.871 346.593 468.871 345.406C468.871 344.22 469.114 343.169 469.6 342.254C470.101 341.339 470.773 340.631 471.617 340.13C472.474 339.616 473.418 339.358 474.448 339.358ZM478.544 345.449C478.544 344.634 478.373 343.927 478.029 343.326C477.701 342.725 477.264 342.268 476.721 341.953C476.178 341.639 475.592 341.481 474.962 341.481C474.333 341.481 473.747 341.639 473.204 341.953C472.66 342.254 472.217 342.704 471.874 343.305C471.545 343.891 471.381 344.591 471.381 345.406C471.381 346.221 471.545 346.936 471.874 347.551C472.217 348.166 472.66 348.638 473.204 348.967C473.761 349.281 474.348 349.439 474.962 349.439C475.592 349.439 476.178 349.281 476.721 348.967C477.264 348.652 477.701 348.195 478.029 347.594C478.373 346.979 478.544 346.264 478.544 345.449ZM490.335 339.358C491.236 339.358 492.036 339.551 492.737 339.937C493.452 340.323 494.009 340.895 494.41 341.653C494.824 342.411 495.032 343.326 495.032 344.398V351.369H492.608V344.763C492.608 343.705 492.344 342.897 491.815 342.339C491.286 341.767 490.564 341.481 489.648 341.481C488.733 341.481 488.004 341.767 487.461 342.339C486.932 342.897 486.667 343.705 486.667 344.763V351.369H484.222V335.498H486.667V340.924C487.082 340.423 487.604 340.037 488.233 339.766C488.876 339.494 489.577 339.358 490.335 339.358ZM506.167 335.498V351.369H503.722V335.498H506.167ZM510.621 337.986C510.178 337.986 509.806 337.835 509.506 337.535C509.206 337.235 509.055 336.863 509.055 336.42C509.055 335.977 509.206 335.605 509.506 335.305C509.806 335.004 510.178 334.854 510.621 334.854C511.05 334.854 511.415 335.004 511.715 335.305C512.015 335.605 512.165 335.977 512.165 336.42C512.165 336.863 512.015 337.235 511.715 337.535C511.415 337.835 511.05 337.986 510.621 337.986ZM511.822 339.551V351.369H509.377V339.551H511.822ZM519.794 339.358C520.709 339.358 521.517 339.544 522.217 339.916C522.932 340.273 523.49 340.724 523.89 341.267V339.551H526.357V351.562C526.357 352.649 526.128 353.614 525.67 354.457C525.213 355.315 524.548 355.987 523.676 356.473C522.818 356.96 521.788 357.203 520.587 357.203C518.986 357.203 517.656 356.824 516.598 356.066C515.54 355.322 514.939 354.307 514.796 353.02H517.22C517.406 353.635 517.799 354.129 518.4 354.5C519.014 354.886 519.744 355.079 520.587 355.079C521.574 355.079 522.367 354.779 522.968 354.179C523.583 353.578 523.89 352.706 523.89 351.562V349.589C523.476 350.146 522.911 350.618 522.196 351.004C521.495 351.376 520.694 351.562 519.794 351.562C518.764 351.562 517.82 351.305 516.963 350.79C516.119 350.261 515.447 349.532 514.946 348.602C514.46 347.658 514.217 346.593 514.217 345.406C514.217 344.22 514.46 343.169 514.946 342.254C515.447 341.339 516.119 340.631 516.963 340.13C517.82 339.616 518.764 339.358 519.794 339.358ZM523.89 345.449C523.89 344.634 523.719 343.927 523.375 343.326C523.047 342.725 522.61 342.268 522.067 341.953C521.524 341.639 520.938 341.481 520.308 341.481C519.679 341.481 519.093 341.639 518.55 341.953C518.006 342.254 517.563 342.704 517.22 343.305C516.891 343.891 516.727 344.591 516.727 345.406C516.727 346.221 516.891 346.936 517.22 347.551C517.563 348.166 518.006 348.638 518.55 348.967C519.107 349.281 519.694 349.439 520.308 349.439C520.938 349.439 521.524 349.281 522.067 348.967C522.61 348.652 523.047 348.195 523.375 347.594C523.719 346.979 523.89 346.264 523.89 345.449ZM535.681 339.358C536.582 339.358 537.382 339.551 538.083 339.937C538.798 340.323 539.355 340.895 539.756 341.653C540.17 342.411 540.378 343.326 540.378 344.398V351.369H537.954V344.763C537.954 343.705 537.69 342.897 537.161 342.339C536.632 341.767 535.91 341.481 534.994 341.481C534.079 341.481 533.35 341.767 532.807 342.339C532.278 342.897 532.013 343.705 532.013 344.763V351.369H529.568V335.498H532.013V340.924C532.428 340.423 532.95 340.037 533.579 339.766C534.222 339.494 534.923 339.358 535.681 339.358ZM546.349 341.546V348.087C546.349 348.531 546.449 348.852 546.649 349.053C546.864 349.238 547.221 349.331 547.722 349.331H549.223V351.369H547.293C546.192 351.369 545.348 351.112 544.762 350.597C544.176 350.082 543.883 349.246 543.883 348.087V341.546H542.489V339.551H543.883V336.613H546.349V339.551H549.223V341.546H546.349Z" fill="black" fill-opacity="0.5"/>
</svg>
