<svg width="251" height="201" viewBox="0 0 251 201" fill="none" xmlns="http://www.w3.org/2000/svg">
<rect width="250" height="200" transform="translate(0.277832 0.5)" fill="white"/>
<path d="M28 55.6753C51.7926 55.6753 41.7624 116.968 60.2751 116.968C78.7878 116.968 72.4652 33.1552 92.5503 33.1552C112.635 33.1552 102.969 68.7603 124.825 68.7603C146.681 68.7603 143.106 24.9048 157.101 24.9048C171.095 24.9048 166.733 82.7544 189.376 82.7544C212.018 82.7544 207.665 35.7034 221.651 35.7034" stroke="#3646EF" stroke-width="3.1746" stroke-miterlimit="10"/>
<path d="M28 89.0903C73.7645 89.0903 72.4404 116.968 92.5006 116.968C112.561 116.968 107.835 33.1553 124.776 33.1553C141.716 33.1553 130.668 103.043 157.051 103.043C183.434 103.043 177.103 65.9505 189.326 65.9505C201.549 65.9505 200.73 109.351 221.601 109.351" stroke="#3646EF" stroke-width="3.1746" stroke-miterlimit="10"/>
<circle cx="81.3833" cy="111.955" r="6.08466" fill="#F0F0F0" stroke="#3646EF" stroke-width="1.5873"/>
<circle cx="169.799" cy="52.418" r="6.08466" fill="#F0F0F0" stroke="#3646EF" stroke-width="1.5873"/>
<path d="M50.3026 143.084C51.4285 143.084 52.4014 143.297 53.2211 143.722C54.0507 144.136 54.6828 144.734 55.1174 145.514C55.5619 146.294 55.7841 147.213 55.7841 148.27C55.7841 149.326 55.5619 150.245 55.1174 151.025C54.6828 151.796 54.0507 152.388 53.2211 152.803C52.4014 153.208 51.4285 153.41 50.3026 153.41H47.0878V143.084H50.3026ZM50.3026 152.299C51.6359 152.299 52.6532 151.949 53.3545 151.247C54.0557 150.536 54.4063 149.544 54.4063 148.27C54.4063 146.986 54.0507 145.983 53.3396 145.262C52.6384 144.541 51.6261 144.181 50.3026 144.181H48.4359V152.299H50.3026ZM64.9697 149.04C64.9697 149.297 64.9549 149.568 64.9253 149.855H58.4364C58.4858 150.655 58.7574 151.282 59.2512 151.736C59.7549 152.181 60.3623 152.403 61.0734 152.403C61.6561 152.403 62.1401 152.27 62.5253 152.003C62.9203 151.726 63.1969 151.361 63.3549 150.907H64.8068C64.5895 151.687 64.1549 152.324 63.5031 152.818C62.8512 153.302 62.0413 153.544 61.0734 153.544C60.3031 153.544 59.6117 153.371 58.9994 153.025C58.3969 152.68 57.9228 152.191 57.5771 151.559C57.2315 150.917 57.0586 150.176 57.0586 149.336C57.0586 148.497 57.2265 147.761 57.5623 147.129C57.8981 146.497 58.3673 146.013 58.9697 145.677C59.5821 145.331 60.2833 145.159 61.0734 145.159C61.8438 145.159 62.5253 145.326 63.1179 145.662C63.7105 145.998 64.1648 146.462 64.4808 147.055C64.8068 147.638 64.9697 148.299 64.9697 149.04ZM63.5771 148.759C63.5771 148.245 63.4636 147.805 63.2364 147.44C63.0092 147.065 62.6981 146.783 62.3031 146.596C61.9179 146.398 61.4882 146.299 61.0142 146.299C60.3327 146.299 59.75 146.517 59.266 146.951C58.792 147.386 58.5203 147.988 58.4512 148.759H63.5771ZM76.5122 145.144C77.1443 145.144 77.7073 145.277 78.2011 145.544C78.6949 145.801 79.085 146.191 79.3715 146.714C79.6579 147.238 79.8011 147.875 79.8011 148.625V153.41H78.4678V148.818C78.4678 148.008 78.2653 147.391 77.8604 146.966C77.4653 146.531 76.927 146.314 76.2455 146.314C75.5443 146.314 74.9863 146.541 74.5715 146.996C74.1567 147.44 73.9492 148.087 73.9492 148.936V153.41H72.6159V148.818C72.6159 148.008 72.4134 147.391 72.0085 146.966C71.6134 146.531 71.0752 146.314 70.3937 146.314C69.6925 146.314 69.1344 146.541 68.7196 146.996C68.3048 147.44 68.0974 148.087 68.0974 148.936V153.41H66.7492V145.292H68.0974V146.462C68.3641 146.038 68.7196 145.712 69.1641 145.484C69.6184 145.257 70.1171 145.144 70.6604 145.144C71.3418 145.144 71.9443 145.297 72.4678 145.603C72.9912 145.909 73.3813 146.359 73.6381 146.951C73.8653 146.378 74.2406 145.934 74.7641 145.618C75.2875 145.302 75.8702 145.144 76.5122 145.144ZM89.42 149.04C89.42 149.297 89.4051 149.568 89.3755 149.855H82.8866C82.936 150.655 83.2076 151.282 83.7014 151.736C84.2051 152.181 84.8126 152.403 85.5237 152.403C86.1064 152.403 86.5903 152.27 86.9755 152.003C87.3706 151.726 87.6471 151.361 87.8051 150.907H89.257C89.0397 151.687 88.6051 152.324 87.9533 152.818C87.3014 153.302 86.4916 153.544 85.5237 153.544C84.7533 153.544 84.0619 153.371 83.4496 153.025C82.8471 152.68 82.373 152.191 82.0274 151.559C81.6817 150.917 81.5089 150.176 81.5089 149.336C81.5089 148.497 81.6768 147.761 82.0126 147.129C82.3484 146.497 82.8175 146.013 83.42 145.677C84.0323 145.331 84.7335 145.159 85.5237 145.159C86.294 145.159 86.9755 145.326 87.5681 145.662C88.1607 145.998 88.615 146.462 88.9311 147.055C89.257 147.638 89.42 148.299 89.42 149.04ZM88.0274 148.759C88.0274 148.245 87.9138 147.805 87.6866 147.44C87.4595 147.065 87.1484 146.783 86.7533 146.596C86.3681 146.398 85.9385 146.299 85.4644 146.299C84.7829 146.299 84.2002 146.517 83.7163 146.951C83.2422 147.386 82.9706 147.988 82.9014 148.759H88.0274ZM94.0736 153.544C93.4513 153.544 92.8933 153.44 92.3995 153.233C91.9057 153.015 91.5155 152.719 91.2291 152.344C90.9427 151.959 90.7847 151.519 90.755 151.025H92.1476C92.1871 151.43 92.3748 151.761 92.7106 152.018C93.0563 152.275 93.5057 152.403 94.0587 152.403C94.5723 152.403 94.9773 152.289 95.2736 152.062C95.5699 151.835 95.718 151.549 95.718 151.203C95.718 150.847 95.56 150.586 95.2439 150.418C94.9279 150.24 94.439 150.067 93.7773 149.899C93.1748 149.741 92.681 149.583 92.2958 149.425C91.9205 149.257 91.5945 149.015 91.318 148.699C91.0513 148.373 90.918 147.949 90.918 147.425C90.918 147.01 91.0415 146.63 91.2884 146.284C91.5353 145.939 91.8859 145.667 92.3402 145.47C92.7945 145.262 93.3131 145.159 93.8958 145.159C94.7945 145.159 95.5205 145.386 96.0736 145.84C96.6266 146.294 96.9229 146.917 96.9624 147.707H95.6143C95.5847 147.282 95.4118 146.941 95.0958 146.684C94.7896 146.428 94.3748 146.299 93.8513 146.299C93.3674 146.299 92.9822 146.403 92.6958 146.61C92.4094 146.818 92.2661 147.089 92.2661 147.425C92.2661 147.692 92.3501 147.914 92.518 148.092C92.6958 148.26 92.9131 148.398 93.1699 148.507C93.4365 148.605 93.8019 148.719 94.2661 148.847C94.8489 149.005 95.3229 149.163 95.6884 149.322C96.0538 149.47 96.3649 149.697 96.6217 150.003C96.8884 150.309 97.0266 150.709 97.0365 151.203C97.0365 151.647 96.9131 152.047 96.6661 152.403C96.4192 152.759 96.0686 153.04 95.6143 153.247C95.1699 153.445 94.6563 153.544 94.0736 153.544ZM102.895 145.144C103.883 145.144 104.683 145.445 105.295 146.047C105.908 146.64 106.214 147.499 106.214 148.625V153.41H104.88V148.818C104.88 148.008 104.678 147.391 104.273 146.966C103.868 146.531 103.315 146.314 102.614 146.314C101.903 146.314 101.335 146.536 100.91 146.981C100.495 147.425 100.288 148.072 100.288 148.922V153.41H98.9396V145.292H100.288V146.447C100.554 146.033 100.915 145.712 101.369 145.484C101.833 145.257 102.342 145.144 102.895 145.144ZM115.823 149.04C115.823 149.297 115.809 149.568 115.779 149.855H109.29C109.339 150.655 109.611 151.282 110.105 151.736C110.609 152.181 111.216 152.403 111.927 152.403C112.51 152.403 112.994 152.27 113.379 152.003C113.774 151.726 114.05 151.361 114.209 150.907H115.66C115.443 151.687 115.009 152.324 114.357 152.818C113.705 153.302 112.895 153.544 111.927 153.544C111.157 153.544 110.465 153.371 109.853 153.025C109.25 152.68 108.776 152.191 108.431 151.559C108.085 150.917 107.912 150.176 107.912 149.336C107.912 148.497 108.08 147.761 108.416 147.129C108.752 146.497 109.221 146.013 109.823 145.677C110.436 145.331 111.137 145.159 111.927 145.159C112.697 145.159 113.379 145.326 113.971 145.662C114.564 145.998 115.018 146.462 115.334 147.055C115.66 147.638 115.823 148.299 115.823 149.04ZM114.431 148.759C114.431 148.245 114.317 147.805 114.09 147.44C113.863 147.065 113.552 146.783 113.157 146.596C112.771 146.398 112.342 146.299 111.868 146.299C111.186 146.299 110.604 146.517 110.12 146.951C109.646 147.386 109.374 147.988 109.305 148.759H114.431ZM124.856 146.403H123.152V153.41H121.804V146.403H120.752V145.292H121.804V144.714C121.804 143.805 122.036 143.144 122.501 142.729C122.975 142.304 123.73 142.092 124.767 142.092V143.218C124.175 143.218 123.755 143.336 123.508 143.573C123.271 143.801 123.152 144.181 123.152 144.714V145.292H124.856V146.403ZM125.924 149.322C125.924 148.492 126.092 147.766 126.428 147.144C126.764 146.512 127.223 146.023 127.806 145.677C128.398 145.331 129.055 145.159 129.776 145.159C130.487 145.159 131.105 145.312 131.628 145.618C132.152 145.924 132.542 146.309 132.798 146.773V145.292H134.161V153.41H132.798V151.899C132.532 152.373 132.132 152.768 131.598 153.084C131.075 153.391 130.463 153.544 129.761 153.544C129.04 153.544 128.389 153.366 127.806 153.01C127.223 152.655 126.764 152.156 126.428 151.514C126.092 150.872 125.924 150.141 125.924 149.322ZM132.798 149.336C132.798 148.724 132.675 148.191 132.428 147.736C132.181 147.282 131.845 146.936 131.421 146.699C131.006 146.452 130.547 146.329 130.043 146.329C129.539 146.329 129.08 146.447 128.665 146.684C128.25 146.922 127.919 147.267 127.673 147.722C127.426 148.176 127.302 148.709 127.302 149.322C127.302 149.944 127.426 150.487 127.673 150.951C127.919 151.405 128.25 151.756 128.665 152.003C129.08 152.24 129.539 152.359 130.043 152.359C130.547 152.359 131.006 152.24 131.421 152.003C131.845 151.756 132.181 151.405 132.428 150.951C132.675 150.487 132.798 149.949 132.798 149.336ZM137.788 146.61C138.025 146.146 138.361 145.786 138.795 145.529C139.24 145.272 139.778 145.144 140.41 145.144V146.536H140.054C138.543 146.536 137.788 147.356 137.788 148.996V153.41H136.44V145.292H137.788V146.61ZM149.946 145.144C150.558 145.144 151.111 145.277 151.605 145.544C152.099 145.801 152.484 146.191 152.76 146.714C153.047 147.238 153.19 147.875 153.19 148.625V153.41H151.857V148.818C151.857 148.008 151.654 147.391 151.249 146.966C150.844 146.531 150.291 146.314 149.59 146.314C148.879 146.314 148.311 146.536 147.886 146.981C147.471 147.425 147.264 148.072 147.264 148.922V153.41H145.916V142.447H147.264V146.447C147.531 146.033 147.896 145.712 148.36 145.484C148.834 145.257 149.363 145.144 149.946 145.144ZM162.8 149.04C162.8 149.297 162.785 149.568 162.755 149.855H156.266C156.316 150.655 156.587 151.282 157.081 151.736C157.585 152.181 158.192 152.403 158.903 152.403C159.486 152.403 159.97 152.27 160.355 152.003C160.75 151.726 161.027 151.361 161.185 150.907H162.637C162.419 151.687 161.985 152.324 161.333 152.818C160.681 153.302 159.871 153.544 158.903 153.544C158.133 153.544 157.442 153.371 156.829 153.025C156.227 152.68 155.753 152.191 155.407 151.559C155.061 150.917 154.888 150.176 154.888 149.336C154.888 148.497 155.056 147.761 155.392 147.129C155.728 146.497 156.197 146.013 156.8 145.677C157.412 145.331 158.113 145.159 158.903 145.159C159.674 145.159 160.355 145.326 160.948 145.662C161.54 145.998 161.995 146.462 162.311 147.055C162.637 147.638 162.8 148.299 162.8 149.04ZM161.407 148.759C161.407 148.245 161.293 147.805 161.066 147.44C160.839 147.065 160.528 146.783 160.133 146.596C159.748 146.398 159.318 146.299 158.844 146.299C158.163 146.299 157.58 146.517 157.096 146.951C156.622 147.386 156.35 147.988 156.281 148.759H161.407ZM164.075 149.322C164.075 148.492 164.243 147.766 164.579 147.144C164.915 146.512 165.374 146.023 165.957 145.677C166.549 145.331 167.206 145.159 167.927 145.159C168.638 145.159 169.256 145.312 169.779 145.618C170.303 145.924 170.693 146.309 170.949 146.773V145.292H172.312V153.41H170.949V151.899C170.683 152.373 170.283 152.768 169.749 153.084C169.226 153.391 168.614 153.544 167.912 153.544C167.191 153.544 166.54 153.366 165.957 153.01C165.374 152.655 164.915 152.156 164.579 151.514C164.243 150.872 164.075 150.141 164.075 149.322ZM170.949 149.336C170.949 148.724 170.826 148.191 170.579 147.736C170.332 147.282 169.996 146.936 169.572 146.699C169.157 146.452 168.698 146.329 168.194 146.329C167.69 146.329 167.231 146.447 166.816 146.684C166.401 146.922 166.07 147.267 165.824 147.722C165.577 148.176 165.453 148.709 165.453 149.322C165.453 149.944 165.577 150.487 165.824 150.951C166.07 151.405 166.401 151.756 166.816 152.003C167.231 152.24 167.69 152.359 168.194 152.359C168.698 152.359 169.157 152.24 169.572 152.003C169.996 151.756 170.332 151.405 170.579 150.951C170.826 150.487 170.949 149.949 170.949 149.336ZM175.939 146.61C176.176 146.146 176.512 145.786 176.946 145.529C177.391 145.272 177.929 145.144 178.561 145.144V146.536H178.206C176.694 146.536 175.939 147.356 175.939 148.996V153.41H174.591V145.292H175.939V146.61ZM181.762 146.403V151.188C181.762 151.583 181.846 151.865 182.014 152.033C182.182 152.191 182.473 152.27 182.888 152.27H183.88V153.41H182.665C181.915 153.41 181.352 153.238 180.977 152.892C180.601 152.546 180.414 151.978 180.414 151.188V146.403H179.362V145.292H180.414V143.247H181.762V145.292H183.88V146.403H181.762ZM192.921 149.04C192.921 149.297 192.906 149.568 192.877 149.855H186.388C186.437 150.655 186.709 151.282 187.203 151.736C187.706 152.181 188.314 152.403 189.025 152.403C189.608 152.403 190.092 152.27 190.477 152.003C190.872 151.726 191.148 151.361 191.306 150.907H192.758C192.541 151.687 192.106 152.324 191.454 152.818C190.803 153.302 189.993 153.544 189.025 153.544C188.254 153.544 187.563 153.371 186.951 153.025C186.348 152.68 185.874 152.191 185.529 151.559C185.183 150.917 185.01 150.176 185.01 149.336C185.01 148.497 185.178 147.761 185.514 147.129C185.85 146.497 186.319 146.013 186.921 145.677C187.533 145.331 188.235 145.159 189.025 145.159C189.795 145.159 190.477 145.326 191.069 145.662C191.662 145.998 192.116 146.462 192.432 147.055C192.758 147.638 192.921 148.299 192.921 149.04ZM191.529 148.759C191.529 148.245 191.415 147.805 191.188 147.44C190.961 147.065 190.65 146.783 190.254 146.596C189.869 146.398 189.44 146.299 188.966 146.299C188.284 146.299 187.701 146.517 187.217 146.951C186.743 147.386 186.472 147.988 186.403 148.759H191.529ZM194.197 149.322C194.197 148.492 194.365 147.766 194.701 147.144C195.036 146.512 195.496 146.023 196.078 145.677C196.671 145.331 197.333 145.159 198.064 145.159C198.696 145.159 199.283 145.307 199.827 145.603C200.37 145.889 200.785 146.27 201.071 146.744V142.447H202.434V153.41H201.071V151.884C200.804 152.368 200.409 152.768 199.886 153.084C199.362 153.391 198.75 153.544 198.049 153.544C197.328 153.544 196.671 153.366 196.078 153.01C195.496 152.655 195.036 152.156 194.701 151.514C194.365 150.872 194.197 150.141 194.197 149.322ZM201.071 149.336C201.071 148.724 200.948 148.191 200.701 147.736C200.454 147.282 200.118 146.936 199.693 146.699C199.278 146.452 198.819 146.329 198.315 146.329C197.812 146.329 197.352 146.447 196.938 146.684C196.523 146.922 196.192 147.267 195.945 147.722C195.698 148.176 195.575 148.709 195.575 149.322C195.575 149.944 195.698 150.487 195.945 150.951C196.192 151.405 196.523 151.756 196.938 152.003C197.352 152.24 197.812 152.359 198.315 152.359C198.819 152.359 199.278 152.24 199.693 152.003C200.118 151.756 200.454 151.405 200.701 150.951C200.948 150.487 201.071 149.949 201.071 149.336ZM37.9682 173.544C37.346 173.544 36.788 173.44 36.2942 173.233C35.8003 173.015 35.4102 172.719 35.1238 172.344C34.8374 171.959 34.6793 171.519 34.6497 171.025H36.0423C36.0818 171.43 36.2695 171.761 36.6053 172.018C36.9509 172.275 37.4003 172.403 37.9534 172.403C38.467 172.403 38.8719 172.289 39.1682 172.062C39.4645 171.835 39.6127 171.549 39.6127 171.203C39.6127 170.847 39.4547 170.586 39.1386 170.418C38.8226 170.24 38.3337 170.067 37.6719 169.899C37.0695 169.741 36.5756 169.583 36.1905 169.425C35.8151 169.257 35.4892 169.015 35.2127 168.699C34.946 168.373 34.8127 167.949 34.8127 167.425C34.8127 167.01 34.9361 166.63 35.183 166.284C35.43 165.939 35.7806 165.667 36.2349 165.47C36.6892 165.262 37.2077 165.159 37.7905 165.159C38.6892 165.159 39.4151 165.386 39.9682 165.84C40.5213 166.294 40.8176 166.917 40.8571 167.707H39.509C39.4793 167.282 39.3065 166.941 38.9905 166.684C38.6843 166.428 38.2695 166.299 37.746 166.299C37.2621 166.299 36.8769 166.403 36.5905 166.61C36.304 166.818 36.1608 167.089 36.1608 167.425C36.1608 167.692 36.2448 167.914 36.4127 168.092C36.5905 168.26 36.8077 168.398 37.0645 168.507C37.3312 168.605 37.6966 168.719 38.1608 168.847C38.7435 169.005 39.2176 169.163 39.583 169.322C39.9485 169.47 40.2596 169.697 40.5164 170.003C40.783 170.309 40.9213 170.709 40.9312 171.203C40.9312 171.647 40.8077 172.047 40.5608 172.403C40.3139 172.759 39.9633 173.04 39.509 173.247C39.0645 173.445 38.5509 173.544 37.9682 173.544ZM50.0343 165.292V173.41H48.6862V172.21C48.4294 172.625 48.0689 172.951 47.6047 173.188C47.1504 173.415 46.6467 173.529 46.0936 173.529C45.4615 173.529 44.8936 173.401 44.3899 173.144C43.8862 172.877 43.4862 172.482 43.1899 171.959C42.9035 171.435 42.7602 170.798 42.7602 170.047V165.292H44.0936V169.87C44.0936 170.67 44.296 171.287 44.701 171.722C45.1059 172.146 45.659 172.359 46.3602 172.359C47.0812 172.359 47.6491 172.136 48.0639 171.692C48.4788 171.247 48.6862 170.601 48.6862 169.751V165.292H50.0343ZM53.6587 166.788C53.9254 166.324 54.3205 165.939 54.8439 165.633C55.3773 165.317 55.9945 165.159 56.6958 165.159C57.4168 165.159 58.0686 165.331 58.6513 165.677C59.2439 166.023 59.7081 166.512 60.0439 167.144C60.3797 167.766 60.5476 168.492 60.5476 169.322C60.5476 170.141 60.3797 170.872 60.0439 171.514C59.7081 172.156 59.2439 172.655 58.6513 173.01C58.0686 173.366 57.4168 173.544 56.6958 173.544C56.0044 173.544 55.3921 173.391 54.8587 173.084C54.3353 172.768 53.9353 172.378 53.6587 171.914V177.262H52.3106V165.292H53.6587V166.788ZM59.1699 169.322C59.1699 168.709 59.0464 168.176 58.7995 167.722C58.5526 167.267 58.2168 166.922 57.7921 166.684C57.3773 166.447 56.918 166.329 56.4143 166.329C55.9205 166.329 55.4612 166.452 55.0365 166.699C54.6217 166.936 54.2859 167.287 54.0291 167.751C53.7822 168.205 53.6587 168.734 53.6587 169.336C53.6587 169.949 53.7822 170.487 54.0291 170.951C54.2859 171.405 54.6217 171.756 55.0365 172.003C55.4612 172.24 55.9205 172.359 56.4143 172.359C56.918 172.359 57.3773 172.24 57.7921 172.003C58.2168 171.756 58.5526 171.405 58.7995 170.951C59.0464 170.487 59.1699 169.944 59.1699 169.322ZM63.6703 166.788C63.937 166.324 64.332 165.939 64.8555 165.633C65.3888 165.317 66.0061 165.159 66.7074 165.159C67.4283 165.159 68.0802 165.331 68.6629 165.677C69.2555 166.023 69.7197 166.512 70.0555 167.144C70.3913 167.766 70.5592 168.492 70.5592 169.322C70.5592 170.141 70.3913 170.872 70.0555 171.514C69.7197 172.156 69.2555 172.655 68.6629 173.01C68.0802 173.366 67.4283 173.544 66.7074 173.544C66.016 173.544 65.4036 173.391 64.8703 173.084C64.3469 172.768 63.9469 172.378 63.6703 171.914V177.262H62.3222V165.292H63.6703V166.788ZM69.1814 169.322C69.1814 168.709 69.058 168.176 68.8111 167.722C68.5641 167.267 68.2283 166.922 67.8036 166.684C67.3888 166.447 66.9296 166.329 66.4259 166.329C65.932 166.329 65.4728 166.452 65.0481 166.699C64.6333 166.936 64.2975 167.287 64.0407 167.751C63.7938 168.205 63.6703 168.734 63.6703 169.336C63.6703 169.949 63.7938 170.487 64.0407 170.951C64.2975 171.405 64.6333 171.756 65.0481 172.003C65.4728 172.24 65.932 172.359 66.4259 172.359C66.9296 172.359 67.3888 172.24 67.8036 172.003C68.2283 171.756 68.5641 171.405 68.8111 170.951C69.058 170.487 69.1814 169.944 69.1814 169.322ZM75.8745 173.544C75.114 173.544 74.4226 173.371 73.8004 173.025C73.1881 172.68 72.7041 172.191 72.3486 171.559C72.0029 170.917 71.83 170.176 71.83 169.336C71.83 168.507 72.0078 167.776 72.3634 167.144C72.7288 166.502 73.2226 166.013 73.8449 165.677C74.4671 165.331 75.1634 165.159 75.9337 165.159C76.7041 165.159 77.4004 165.331 78.0226 165.677C78.6449 166.013 79.1337 166.497 79.4893 167.129C79.8547 167.761 80.0374 168.497 80.0374 169.336C80.0374 170.176 79.8498 170.917 79.4745 171.559C79.1091 172.191 78.6103 172.68 77.9782 173.025C77.3461 173.371 76.6449 173.544 75.8745 173.544ZM75.8745 172.359C76.3584 172.359 76.8128 172.245 77.2374 172.018C77.6621 171.791 78.0029 171.45 78.2597 170.996C78.5263 170.541 78.6597 169.988 78.6597 169.336C78.6597 168.684 78.5313 168.131 78.2745 167.677C78.0177 167.223 77.6819 166.887 77.2671 166.67C76.8523 166.442 76.4029 166.329 75.9189 166.329C75.4251 166.329 74.9708 166.442 74.556 166.67C74.151 166.887 73.8251 167.223 73.5782 167.677C73.3313 168.131 73.2078 168.684 73.2078 169.336C73.2078 169.998 73.3263 170.556 73.5634 171.01C73.8103 171.465 74.1362 171.805 74.5411 172.033C74.9461 172.25 75.3905 172.359 75.8745 172.359ZM84.6841 173.544C84.0619 173.544 83.5038 173.44 83.01 173.233C82.5162 173.015 82.1261 172.719 81.8396 172.344C81.5532 171.959 81.3952 171.519 81.3656 171.025H82.7582C82.7977 171.43 82.9853 171.761 83.3211 172.018C83.6668 172.275 84.1162 172.403 84.6693 172.403C85.1829 172.403 85.5878 172.289 85.8841 172.062C86.1804 171.835 86.3285 171.549 86.3285 171.203C86.3285 170.847 86.1705 170.586 85.8545 170.418C85.5384 170.24 85.0495 170.067 84.3878 169.899C83.7853 169.741 83.2915 169.583 82.9063 169.425C82.531 169.257 82.2051 169.015 81.9285 168.699C81.6619 168.373 81.5285 167.949 81.5285 167.425C81.5285 167.01 81.652 166.63 81.8989 166.284C82.1458 165.939 82.4964 165.667 82.9508 165.47C83.4051 165.262 83.9236 165.159 84.5063 165.159C85.4051 165.159 86.131 165.386 86.6841 165.84C87.2372 166.294 87.5335 166.917 87.573 167.707H86.2248C86.1952 167.282 86.0224 166.941 85.7063 166.684C85.4001 166.428 84.9853 166.299 84.4619 166.299C83.9779 166.299 83.5927 166.403 83.3063 166.61C83.0199 166.818 82.8767 167.089 82.8767 167.425C82.8767 167.692 82.9606 167.914 83.1285 168.092C83.3063 168.26 83.5236 168.398 83.7804 168.507C84.0471 168.605 84.4125 168.719 84.8767 168.847C85.4594 169.005 85.9335 169.163 86.2989 169.322C86.6643 169.47 86.9754 169.697 87.2322 170.003C87.4989 170.309 87.6372 170.709 87.6471 171.203C87.6471 171.647 87.5236 172.047 87.2767 172.403C87.0298 172.759 86.6792 173.04 86.2248 173.247C85.7804 173.445 85.2668 173.544 84.6841 173.544ZM96.9576 169.04C96.9576 169.297 96.9428 169.568 96.9131 169.855H90.4243C90.4736 170.655 90.7452 171.282 91.2391 171.736C91.7428 172.181 92.3502 172.403 93.0613 172.403C93.644 172.403 94.128 172.27 94.5131 172.003C94.9082 171.726 95.1847 171.361 95.3428 170.907H96.7946C96.5773 171.687 96.1428 172.324 95.4909 172.818C94.8391 173.302 94.0292 173.544 93.0613 173.544C92.2909 173.544 91.5996 173.371 90.9872 173.025C90.3847 172.68 89.9107 172.191 89.565 171.559C89.2193 170.917 89.0465 170.176 89.0465 169.336C89.0465 168.497 89.2144 167.761 89.5502 167.129C89.886 166.497 90.3551 166.013 90.9576 165.677C91.5699 165.331 92.2712 165.159 93.0613 165.159C93.8317 165.159 94.5131 165.326 95.1057 165.662C95.6983 165.998 96.1526 166.462 96.4687 167.055C96.7946 167.638 96.9576 168.299 96.9576 169.04ZM95.565 168.759C95.565 168.245 95.4514 167.805 95.2243 167.44C94.9971 167.065 94.686 166.783 94.2909 166.596C93.9057 166.398 93.4761 166.299 93.002 166.299C92.3205 166.299 91.7378 166.517 91.2539 166.951C90.7798 167.386 90.5082 167.988 90.4391 168.759H95.565ZM105.709 172.166L108.227 165.292H109.665L106.479 173.41H104.909L101.724 165.292H103.176L105.709 172.166ZM118.399 169.04C118.399 169.297 118.384 169.568 118.354 169.855H111.865C111.915 170.655 112.186 171.282 112.68 171.736C113.184 172.181 113.791 172.403 114.502 172.403C115.085 172.403 115.569 172.27 115.954 172.003C116.349 171.726 116.626 171.361 116.784 170.907H118.236C118.018 171.687 117.584 172.324 116.932 172.818C116.28 173.302 115.47 173.544 114.502 173.544C113.732 173.544 113.041 173.371 112.428 173.025C111.826 172.68 111.352 172.191 111.006 171.559C110.66 170.917 110.487 170.176 110.487 169.336C110.487 168.497 110.655 167.761 110.991 167.129C111.327 166.497 111.796 166.013 112.399 165.677C113.011 165.331 113.712 165.159 114.502 165.159C115.273 165.159 115.954 165.326 116.547 165.662C117.139 165.998 117.594 166.462 117.91 167.055C118.236 167.638 118.399 168.299 118.399 169.04ZM117.006 168.759C117.006 168.245 116.892 167.805 116.665 167.44C116.438 167.065 116.127 166.783 115.732 166.596C115.347 166.398 114.917 166.299 114.443 166.299C113.762 166.299 113.179 166.517 112.695 166.951C112.221 167.386 111.949 167.988 111.88 168.759H117.006ZM124.134 165.144C125.121 165.144 125.921 165.445 126.534 166.047C127.146 166.64 127.452 167.499 127.452 168.625V173.41H126.119V168.818C126.119 168.008 125.916 167.391 125.511 166.966C125.106 166.531 124.553 166.314 123.852 166.314C123.141 166.314 122.573 166.536 122.148 166.981C121.734 167.425 121.526 168.072 121.526 168.922V173.41H120.178V165.292H121.526V166.447C121.793 166.033 122.153 165.712 122.608 165.484C123.072 165.257 123.581 165.144 124.134 165.144ZM131.299 166.403V171.188C131.299 171.583 131.383 171.865 131.551 172.033C131.719 172.191 132.01 172.27 132.425 172.27H133.417V173.41H132.202C131.452 173.41 130.889 173.238 130.514 172.892C130.138 172.546 129.951 171.978 129.951 171.188V166.403H128.899V165.292H129.951V163.247H131.299V165.292H133.417V166.403H131.299ZM142.251 165.292V173.41H140.903V172.21C140.646 172.625 140.285 172.951 139.821 173.188C139.367 173.415 138.863 173.529 138.31 173.529C137.678 173.529 137.11 173.401 136.606 173.144C136.103 172.877 135.703 172.482 135.406 171.959C135.12 171.435 134.977 170.798 134.977 170.047V165.292H136.31V169.87C136.31 170.67 136.512 171.287 136.917 171.722C137.322 172.146 137.875 172.359 138.577 172.359C139.298 172.359 139.866 172.136 140.28 171.692C140.695 171.247 140.903 170.601 140.903 169.751V165.292H142.251ZM145.875 166.61C146.112 166.146 146.448 165.786 146.883 165.529C147.327 165.272 147.865 165.144 148.497 165.144V166.536H148.142C146.631 166.536 145.875 167.356 145.875 168.996V173.41H144.527V165.292H145.875V166.61ZM157.461 169.04C157.461 169.297 157.446 169.568 157.417 169.855H150.928C150.977 170.655 151.249 171.282 151.743 171.736C152.246 172.181 152.854 172.403 153.565 172.403C154.147 172.403 154.631 172.27 155.017 172.003C155.412 171.726 155.688 171.361 155.846 170.907H157.298C157.081 171.687 156.646 172.324 155.994 172.818C155.343 173.302 154.533 173.544 153.565 173.544C152.794 173.544 152.103 173.371 151.491 173.025C150.888 172.68 150.414 172.191 150.068 171.559C149.723 170.917 149.55 170.176 149.55 169.336C149.55 168.497 149.718 167.761 150.054 167.129C150.389 166.497 150.859 166.013 151.461 165.677C152.073 165.331 152.775 165.159 153.565 165.159C154.335 165.159 155.017 165.326 155.609 165.662C156.202 165.998 156.656 166.462 156.972 167.055C157.298 167.638 157.461 168.299 157.461 169.04ZM156.068 168.759C156.068 168.245 155.955 167.805 155.728 167.44C155.501 167.065 155.189 166.783 154.794 166.596C154.409 166.398 153.98 166.299 153.506 166.299C152.824 166.299 152.241 166.517 151.757 166.951C151.283 167.386 151.012 167.988 150.943 168.759H156.068ZM170.598 169.04C170.598 169.297 170.583 169.568 170.553 169.855H164.064C164.114 170.655 164.385 171.282 164.879 171.736C165.383 172.181 165.99 172.403 166.701 172.403C167.284 172.403 167.768 172.27 168.153 172.003C168.548 171.726 168.825 171.361 168.983 170.907H170.435C170.217 171.687 169.783 172.324 169.131 172.818C168.479 173.302 167.669 173.544 166.701 173.544C165.931 173.544 165.24 173.371 164.627 173.025C164.025 172.68 163.551 172.191 163.205 171.559C162.859 170.917 162.687 170.176 162.687 169.336C162.687 168.497 162.854 167.761 163.19 167.129C163.526 166.497 163.995 166.013 164.598 165.677C165.21 165.331 165.911 165.159 166.701 165.159C167.472 165.159 168.153 165.326 168.746 165.662C169.338 165.998 169.793 166.462 170.109 167.055C170.435 167.638 170.598 168.299 170.598 169.04ZM169.205 168.759C169.205 168.245 169.091 167.805 168.864 167.44C168.637 167.065 168.326 166.783 167.931 166.596C167.546 166.398 167.116 166.299 166.642 166.299C165.961 166.299 165.378 166.517 164.894 166.951C164.42 167.386 164.148 167.988 164.079 168.759H169.205ZM176.614 173.41L174.688 170.388L172.836 173.41H171.429L174.051 169.381L171.429 165.292H172.955L174.881 168.299L176.718 165.292H178.125L175.518 169.307L178.14 173.41H176.614ZM178.963 169.336C178.963 168.497 179.13 167.766 179.466 167.144C179.802 166.512 180.266 166.023 180.859 165.677C181.461 165.331 182.148 165.159 182.918 165.159C183.916 165.159 184.735 165.401 185.377 165.884C186.029 166.368 186.459 167.04 186.666 167.899H185.214C185.076 167.405 184.805 167.015 184.4 166.729C184.005 166.442 183.511 166.299 182.918 166.299C182.148 166.299 181.526 166.566 181.051 167.099C180.577 167.623 180.34 168.368 180.34 169.336C180.34 170.314 180.577 171.07 181.051 171.603C181.526 172.136 182.148 172.403 182.918 172.403C183.511 172.403 184.005 172.265 184.4 171.988C184.795 171.712 185.066 171.317 185.214 170.803H186.666C186.449 171.633 186.014 172.299 185.363 172.803C184.711 173.297 183.896 173.544 182.918 173.544C182.148 173.544 181.461 173.371 180.859 173.025C180.266 172.68 179.802 172.191 179.466 171.559C179.13 170.926 178.963 170.186 178.963 169.336ZM189.161 163.973C188.905 163.973 188.687 163.884 188.51 163.707C188.332 163.529 188.243 163.312 188.243 163.055C188.243 162.798 188.332 162.581 188.51 162.403C188.687 162.225 188.905 162.136 189.161 162.136C189.408 162.136 189.616 162.225 189.784 162.403C189.961 162.581 190.05 162.798 190.05 163.055C190.05 163.312 189.961 163.529 189.784 163.707C189.616 163.884 189.408 163.973 189.161 163.973ZM189.813 165.292V173.41H188.465V165.292H189.813ZM193.755 166.403V171.188C193.755 171.583 193.839 171.865 194.007 172.033C194.175 172.191 194.466 172.27 194.881 172.27H195.874V173.41H194.659C193.908 173.41 193.346 173.238 192.97 172.892C192.595 172.546 192.407 171.978 192.407 171.188V166.403H191.355V165.292H192.407V163.247H193.755V165.292H195.874V166.403H193.755ZM204.915 169.04C204.915 169.297 204.9 169.568 204.87 169.855H198.381C198.431 170.655 198.702 171.282 199.196 171.736C199.7 172.181 200.307 172.403 201.018 172.403C201.601 172.403 202.085 172.27 202.47 172.003C202.865 171.726 203.142 171.361 203.3 170.907H204.752C204.535 171.687 204.1 172.324 203.448 172.818C202.796 173.302 201.986 173.544 201.018 173.544C200.248 173.544 199.557 173.371 198.944 173.025C198.342 172.68 197.868 172.191 197.522 171.559C197.176 170.917 197.004 170.176 197.004 169.336C197.004 168.497 197.172 167.761 197.507 167.129C197.843 166.497 198.312 166.013 198.915 165.677C199.527 165.331 200.228 165.159 201.018 165.159C201.789 165.159 202.47 165.326 203.063 165.662C203.656 165.998 204.11 166.462 204.426 167.055C204.752 167.638 204.915 168.299 204.915 169.04ZM203.522 168.759C203.522 168.245 203.409 167.805 203.181 167.44C202.954 167.065 202.643 166.783 202.248 166.596C201.863 166.398 201.433 166.299 200.959 166.299C200.278 166.299 199.695 166.517 199.211 166.951C198.737 167.386 198.465 167.988 198.396 168.759H203.522ZM206.191 169.322C206.191 168.492 206.358 167.766 206.694 167.144C207.03 166.512 207.489 166.023 208.072 165.677C208.665 165.331 209.326 165.159 210.057 165.159C210.689 165.159 211.277 165.307 211.82 165.603C212.363 165.889 212.778 166.27 213.065 166.744V162.447H214.428V173.41H213.065V171.884C212.798 172.368 212.403 172.768 211.879 173.084C211.356 173.391 210.744 173.544 210.042 173.544C209.321 173.544 208.665 173.366 208.072 173.01C207.489 172.655 207.03 172.156 206.694 171.514C206.358 170.872 206.191 170.141 206.191 169.322ZM213.065 169.336C213.065 168.724 212.941 168.191 212.694 167.736C212.447 167.282 212.112 166.936 211.687 166.699C211.272 166.452 210.813 166.329 210.309 166.329C209.805 166.329 209.346 166.447 208.931 166.684C208.517 166.922 208.186 167.267 207.939 167.722C207.692 168.176 207.568 168.709 207.568 169.322C207.568 169.944 207.692 170.487 207.939 170.951C208.186 171.405 208.517 171.756 208.931 172.003C209.346 172.24 209.805 172.359 210.309 172.359C210.813 172.359 211.272 172.24 211.687 172.003C212.112 171.756 212.447 171.405 212.694 170.951C212.941 170.487 213.065 169.949 213.065 169.336Z" fill="black" fill-opacity="0.5"/>
</svg>
