<svg width="251" height="201" viewBox="0 0 251 201" fill="none" xmlns="http://www.w3.org/2000/svg">
<rect width="250" height="200" transform="translate(0.5 0.647461)" fill="white"/>
<path d="M51.3193 37.4441H27.5098V134.847H51.3193V37.4441Z" fill="#F0F0F0"/>
<path d="M51.3193 89.3921H27.5098V134.847H51.3193V89.3921Z" fill="#3646EF"/>
<path d="M94.2255 37.4441H70.416V134.847H94.2255V37.4441Z" fill="#F0F0F0"/>
<path d="M94.2255 106.708H70.416V134.847H94.2255V106.708Z" fill="#3646EF"/>
<path d="M137.133 37.4441H113.323V134.847H137.133V37.4441Z" fill="#F0F0F0"/>
<path d="M137.133 55.8423H113.323V134.847H137.133V55.8423Z" fill="#3646EF"/>
<path d="M180.04 37.4441H156.23V134.847H180.04V37.4441Z" fill="#F0F0F0"/>
<path d="M180.04 85.0632H156.23V134.847H180.04V85.0632Z" fill="#3646EF"/>
<path d="M222.946 37.4441H199.137V134.847H222.946V37.4441Z" fill="#F0F0F0"/>
<path d="M222.946 47.1843H199.137V134.847H222.946V47.1843Z" fill="#3646EF"/>
<path d="M37.7912 166.492C37.7912 169.182 35.6107 171.362 32.921 171.362C30.2313 171.362 28.0509 169.182 28.0509 166.492C28.0509 163.802 30.2313 161.622 32.921 161.622C35.6107 161.622 37.7912 163.802 37.7912 166.492Z" fill="#DCE8FF" stroke="#3646EF" stroke-width="1.08225"/>
<path d="M45.7002 170.386C46.983 169.355 47.988 168.512 48.7153 167.855C49.4426 167.189 50.0537 166.497 50.5487 165.78C51.0537 165.052 51.3062 164.34 51.3062 163.643C51.3062 162.987 51.1446 162.471 50.8214 162.098C50.5082 161.714 49.9981 161.522 49.2911 161.522C48.6042 161.522 48.0689 161.739 47.685 162.174C47.3113 162.598 47.1093 163.168 47.079 163.886H45.7456C45.786 162.754 46.1295 161.881 46.7759 161.264C47.4224 160.648 48.2557 160.34 49.2759 160.34C50.3163 160.34 51.1396 160.628 51.7456 161.204C52.3618 161.78 52.6699 162.573 52.6699 163.583C52.6699 164.421 52.4173 165.239 51.9123 166.037C51.4173 166.825 50.8517 167.522 50.2153 168.128C49.579 168.724 48.7658 169.421 47.7759 170.219H52.988V171.37H45.7002V170.386ZM54.5819 165.901C54.5819 164.163 54.8647 162.81 55.4304 161.84C55.9961 160.86 56.986 160.37 58.4001 160.37C59.8041 160.37 60.789 160.86 61.3546 161.84C61.9203 162.81 62.2031 164.163 62.2031 165.901C62.2031 167.668 61.9203 169.042 61.3546 170.022C60.789 171.002 59.8041 171.492 58.4001 171.492C56.986 171.492 55.9961 171.002 55.4304 170.022C54.8647 169.042 54.5819 167.668 54.5819 165.901ZM60.8395 165.901C60.8395 165.022 60.7789 164.28 60.6577 163.674C60.5466 163.057 60.3092 162.562 59.9455 162.189C59.592 161.815 59.0769 161.628 58.4001 161.628C57.7132 161.628 57.188 161.815 56.8243 162.189C56.4708 162.562 56.2334 163.057 56.1122 163.674C56.0011 164.28 55.9456 165.022 55.9456 165.901C55.9456 166.81 56.0011 167.573 56.1122 168.189C56.2334 168.805 56.4708 169.3 56.8243 169.674C57.188 170.047 57.7132 170.234 58.4001 170.234C59.0769 170.234 59.592 170.047 59.9455 169.674C60.3092 169.3 60.5466 168.805 60.6577 168.189C60.7789 167.573 60.8395 166.81 60.8395 165.901ZM63.9293 170.386C65.2122 169.355 66.2172 168.512 66.9445 167.855C67.6718 167.189 68.2829 166.497 68.7778 165.78C69.2829 165.052 69.5354 164.34 69.5354 163.643C69.5354 162.987 69.3738 162.471 69.0505 162.098C68.7374 161.714 68.2273 161.522 67.5202 161.522C66.8334 161.522 66.298 161.739 65.9142 162.174C65.5404 162.598 65.3384 163.168 65.3081 163.886H63.9748C64.0152 162.754 64.3586 161.881 65.0051 161.264C65.6516 160.648 66.4849 160.34 67.5051 160.34C68.5455 160.34 69.3687 160.628 69.9748 161.204C70.5909 161.78 70.899 162.573 70.899 163.583C70.899 164.421 70.6465 165.239 70.1415 166.037C69.6465 166.825 69.0808 167.522 68.4445 168.128C67.8081 168.724 66.995 169.421 66.0051 170.219H71.2172V171.37H63.9293V170.386ZM72.4474 161.795V160.537H75.2959V171.492H73.902V161.795H72.4474Z" fill="black" fill-opacity="0.5"/>
<path d="M105.505 166.492C105.505 169.182 103.325 171.362 100.635 171.362C97.9452 171.362 95.7648 169.182 95.7648 166.492C95.7648 163.802 97.9452 161.622 100.635 161.622C103.325 161.622 105.505 163.802 105.505 166.492Z" fill="#DCE8FF" stroke="#3646EF" stroke-width="1.08225"/>
<path d="M113.483 170.386C114.766 169.355 115.771 168.512 116.498 167.855C117.226 167.189 117.837 166.497 118.332 165.78C118.837 165.052 119.089 164.34 119.089 163.643C119.089 162.987 118.928 162.471 118.604 162.098C118.291 161.714 117.781 161.522 117.074 161.522C116.387 161.522 115.852 161.739 115.468 162.174C115.094 162.598 114.892 163.168 114.862 163.886H113.529C113.569 162.754 113.912 161.881 114.559 161.264C115.205 160.648 116.039 160.34 117.059 160.34C118.099 160.34 118.923 160.628 119.529 161.204C120.145 161.78 120.453 162.573 120.453 163.583C120.453 164.421 120.2 165.239 119.695 166.037C119.2 166.825 118.635 167.522 117.998 168.128C117.362 168.724 116.549 169.421 115.559 170.219H120.771V171.37H113.483V170.386ZM122.365 165.901C122.365 164.163 122.648 162.81 123.213 161.84C123.779 160.86 124.769 160.37 126.183 160.37C127.587 160.37 128.572 160.86 129.138 161.84C129.703 162.81 129.986 164.163 129.986 165.901C129.986 167.668 129.703 169.042 129.138 170.022C128.572 171.002 127.587 171.492 126.183 171.492C124.769 171.492 123.779 171.002 123.213 170.022C122.648 169.042 122.365 167.668 122.365 165.901ZM128.622 165.901C128.622 165.022 128.562 164.28 128.441 163.674C128.329 163.057 128.092 162.562 127.728 162.189C127.375 161.815 126.86 161.628 126.183 161.628C125.496 161.628 124.971 161.815 124.607 162.189C124.254 162.562 124.016 163.057 123.895 163.674C123.784 164.28 123.728 165.022 123.728 165.901C123.728 166.81 123.784 167.573 123.895 168.189C124.016 168.805 124.254 169.3 124.607 169.674C124.971 170.047 125.496 170.234 126.183 170.234C126.86 170.234 127.375 170.047 127.728 169.674C128.092 169.3 128.329 168.805 128.441 168.189C128.562 167.573 128.622 166.81 128.622 165.901ZM131.712 170.386C132.995 169.355 134 168.512 134.727 167.855C135.455 167.189 136.066 166.497 136.561 165.78C137.066 165.052 137.318 164.34 137.318 163.643C137.318 162.987 137.157 162.471 136.833 162.098C136.52 161.714 136.01 161.522 135.303 161.522C134.616 161.522 134.081 161.739 133.697 162.174C133.323 162.598 133.121 163.168 133.091 163.886H131.758C131.798 162.754 132.142 161.881 132.788 161.264C133.434 160.648 134.268 160.34 135.288 160.34C136.328 160.34 137.152 160.628 137.758 161.204C138.374 161.78 138.682 162.573 138.682 163.583C138.682 164.421 138.429 165.239 137.924 166.037C137.429 166.825 136.864 167.522 136.227 168.128C135.591 168.724 134.778 169.421 133.788 170.219H139V171.37H131.712V170.386ZM140.427 170.386C141.71 169.355 142.715 168.512 143.442 167.855C144.17 167.189 144.781 166.497 145.276 165.78C145.781 165.052 146.033 164.34 146.033 163.643C146.033 162.987 145.872 162.471 145.549 162.098C145.235 161.714 144.725 161.522 144.018 161.522C143.331 161.522 142.796 161.739 142.412 162.174C142.038 162.598 141.836 163.168 141.806 163.886H140.473C140.513 162.754 140.857 161.881 141.503 161.264C142.15 160.648 142.983 160.34 144.003 160.34C145.044 160.34 145.867 160.628 146.473 161.204C147.089 161.78 147.397 162.573 147.397 163.583C147.397 164.421 147.145 165.239 146.639 166.037C146.145 166.825 145.579 167.522 144.942 168.128C144.306 168.724 143.493 169.421 142.503 170.219H147.715V171.37H140.427V170.386Z" fill="black" fill-opacity="0.5"/>
<path d="M177.22 166.492C177.22 169.182 175.039 171.362 172.35 171.362C169.66 171.362 167.48 169.182 167.48 166.492C167.48 163.802 169.66 161.622 172.35 161.622C175.039 161.622 177.22 163.802 177.22 166.492Z" fill="#DCE8FF" stroke="#3646EF" stroke-width="1.08225"/>
<path d="M185.094 170.386C186.377 169.355 187.382 168.512 188.11 167.855C188.837 167.189 189.448 166.497 189.943 165.78C190.448 165.052 190.7 164.34 190.7 163.643C190.7 162.987 190.539 162.471 190.216 162.098C189.902 161.714 189.392 161.522 188.685 161.522C187.998 161.522 187.463 161.739 187.079 162.174C186.705 162.598 186.503 163.168 186.473 163.886H185.14C185.18 162.754 185.524 161.881 186.17 161.264C186.817 160.648 187.65 160.34 188.67 160.34C189.711 160.34 190.534 160.628 191.14 161.204C191.756 161.78 192.064 162.573 192.064 163.583C192.064 164.421 191.812 165.239 191.306 166.037C190.812 166.825 190.246 167.522 189.61 168.128C188.973 168.724 188.16 169.421 187.17 170.219H192.382V171.37H185.094V170.386ZM193.976 165.901C193.976 164.163 194.259 162.81 194.825 161.84C195.39 160.86 196.38 160.37 197.794 160.37C199.198 160.37 200.183 160.86 200.749 161.84C201.315 162.81 201.597 164.163 201.597 165.901C201.597 167.668 201.315 169.042 200.749 170.022C200.183 171.002 199.198 171.492 197.794 171.492C196.38 171.492 195.39 171.002 194.825 170.022C194.259 169.042 193.976 167.668 193.976 165.901ZM200.234 165.901C200.234 165.022 200.173 164.28 200.052 163.674C199.941 163.057 199.703 162.562 199.34 162.189C198.986 161.815 198.471 161.628 197.794 161.628C197.107 161.628 196.582 161.815 196.219 162.189C195.865 162.562 195.628 163.057 195.506 163.674C195.395 164.28 195.34 165.022 195.34 165.901C195.34 166.81 195.395 167.573 195.506 168.189C195.628 168.805 195.865 169.3 196.219 169.674C196.582 170.047 197.107 170.234 197.794 170.234C198.471 170.234 198.986 170.047 199.34 169.674C199.703 169.3 199.941 168.805 200.052 168.189C200.173 167.573 200.234 166.81 200.234 165.901ZM203.324 170.386C204.606 169.355 205.611 168.512 206.339 167.855C207.066 167.189 207.677 166.497 208.172 165.78C208.677 165.052 208.93 164.34 208.93 163.643C208.93 162.987 208.768 162.471 208.445 162.098C208.132 161.714 207.622 161.522 206.914 161.522C206.228 161.522 205.692 161.739 205.308 162.174C204.935 162.598 204.733 163.168 204.702 163.886H203.369C203.409 162.754 203.753 161.881 204.399 161.264C205.046 160.648 205.879 160.34 206.899 160.34C207.94 160.34 208.763 160.628 209.369 161.204C209.985 161.78 210.293 162.573 210.293 163.583C210.293 164.421 210.041 165.239 209.536 166.037C209.041 166.825 208.475 167.522 207.839 168.128C207.202 168.724 206.389 169.421 205.399 170.219H210.611V171.37H203.324V170.386ZM212.175 163.295C212.246 162.365 212.604 161.638 213.251 161.113C213.897 160.588 214.736 160.325 215.766 160.325C216.453 160.325 217.044 160.451 217.539 160.704C218.044 160.946 218.422 161.28 218.675 161.704C218.938 162.128 219.069 162.608 219.069 163.143C219.069 163.769 218.887 164.31 218.523 164.764C218.17 165.219 217.705 165.512 217.13 165.643V165.719C217.786 165.881 218.306 166.199 218.69 166.674C219.074 167.148 219.266 167.769 219.266 168.537C219.266 169.113 219.135 169.633 218.872 170.098C218.609 170.552 218.215 170.911 217.69 171.174C217.165 171.436 216.534 171.567 215.796 171.567C214.725 171.567 213.847 171.29 213.16 170.734C212.473 170.168 212.089 169.37 212.008 168.34H213.342C213.412 168.946 213.66 169.441 214.084 169.825C214.508 170.209 215.074 170.401 215.781 170.401C216.488 170.401 217.023 170.219 217.387 169.855C217.761 169.482 217.948 169.002 217.948 168.416C217.948 167.658 217.695 167.113 217.19 166.78C216.685 166.446 215.922 166.28 214.902 166.28H214.554V165.128H214.917C215.847 165.118 216.549 164.966 217.023 164.674C217.498 164.37 217.736 163.906 217.736 163.28C217.736 162.744 217.559 162.315 217.205 161.992C216.862 161.668 216.367 161.507 215.72 161.507C215.094 161.507 214.589 161.668 214.205 161.992C213.821 162.315 213.594 162.749 213.523 163.295H212.175Z" fill="black" fill-opacity="0.5"/>
</svg>
